<svg id="Corporate_Provider" data-name="Corporate Provider" xmlns="http://www.w3.org/2000/svg" xmlns:xlink="http://www.w3.org/1999/xlink" width="34" height="34" viewBox="0 0 34 34">
  <defs>
    <clipPath id="clip-path">
      <ellipse id="Ellipse_157" data-name="Ellipse 157" cx="10.066" cy="10.065" rx="10.066" ry="10.065" transform="translate(0 19.774) rotate(-79.189)" fill="none"/>
    </clipPath>
  </defs>
  <ellipse id="Ellipse_155" data-name="Ellipse 155" cx="14.841" cy="14.841" rx="14.841" ry="14.841" transform="translate(2.206 2.144)" fill="#55d6be"/>
  <ellipse id="Ellipse_156" data-name="Ellipse 156" cx="10.066" cy="10.065" rx="10.066" ry="10.065" transform="translate(5.272 24.999) rotate(-79.189)" fill="#ffd6e0"/>
  <g id="Group_38094" data-name="Group 38094" transform="translate(5.272 5.225)">
    <g id="Group_38093" data-name="Group 38093" transform="translate(0 0)" clip-path="url(#clip-path)">
      <g id="Group_38092" data-name="Group 38092" transform="translate(3.816 4.447)">
        <path id="Path_5147" data-name="Path 5147" d="M-990.138,1019.876a.266.266,0,0,0-.266.266v1.04h.531v-1.04A.265.265,0,0,0-990.138,1019.876Z" transform="translate(996.348 -1019.876)"/>
        <path id="Path_5148" data-name="Path 5148" d="M-964.085,1044.654a.265.265,0,0,0-.265.266v.736h.531v-.736A.265.265,0,0,0-964.085,1044.654Z" transform="translate(977.97 -1037.354)"/>
        <path id="Path_5149" data-name="Path 5149" d="M-1005.958,1036.745a.266.266,0,0,0-.266-.265.265.265,0,0,0-.265.265h0v.433h.53Z" transform="translate(1007.693 -1031.588)"/>
        <path id="Path_5150" data-name="Path 5150" d="M-967.282,1055.591h2.258v-3.551h-2.258Zm.64-2.912h.883a.265.265,0,0,1,.265.265.265.265,0,0,1-.265.266h-.883a.266.266,0,0,1-.265-.266A.265.265,0,0,1-966.642,1052.679Zm0,1h.883a.265.265,0,0,1,.265.266.265.265,0,0,1-.265.265h-.883a.265.265,0,0,1-.265-.265A.265.265,0,0,1-966.642,1053.675Zm0,1h.883a.266.266,0,0,1,.265.266.265.265,0,0,1-.265.265h-.883a.266.266,0,0,1-.265-.265A.266.266,0,0,1-966.642,1054.672Z" transform="translate(980.038 -1042.564)"/>
        <rect id="Rectangle_659" data-name="Rectangle 659" width="0.836" height="0.342" transform="translate(13.467 8.604)"/>
        <path id="Path_5151" data-name="Path 5151" d="M-1006.306,1039.917h-1.028v1.062l1.028-.506Z" transform="translate(1008.29 -1034.012)"/>
        <rect id="Rectangle_660" data-name="Rectangle 660" width="3.366" height="0.958" transform="translate(4.361 1.592)"/>
        <path id="Path_5152" data-name="Path 5152" d="M-982.74,1067.972a8.345,8.345,0,0,1,3.668.953,10.913,10.913,0,0,0,.478-3.031h-4.146Z" transform="translate(990.942 -1052.336)"/>
        <path id="Path_5153" data-name="Path 5153" d="M-993.475,1030.333h-4.894v9.947h4.894Zm-1.013,9.227h-2.868a.265.265,0,0,1-.265-.265.265.265,0,0,1,.265-.265h2.868a.266.266,0,0,1,.266.265.265.265,0,0,1-.266.265Zm0-1.506h-2.868a.265.265,0,0,1-.265-.265.265.265,0,0,1,.265-.265h2.868a.265.265,0,0,1,.266.265.266.266,0,0,1-.266.265Zm0-1.507h-2.868a.265.265,0,0,1-.265-.265.265.265,0,0,1,.265-.266h2.868a.266.266,0,0,1,.266.266.265.265,0,0,1-.266.265Zm0-1.506h-2.868a.265.265,0,0,1-.265-.265.265.265,0,0,1,.265-.266h2.868a.266.266,0,0,1,.266.266.266.266,0,0,1-.266.265Zm0-1.507h-2.868a.265.265,0,0,1-.265-.265.265.265,0,0,1,.265-.266h2.868a.266.266,0,0,1,.266.266.265.265,0,0,1-.266.265Zm0-1.506h-2.868a.265.265,0,0,1-.265-.266.265.265,0,0,1,.265-.265h2.868a.265.265,0,0,1,.266.265.266.266,0,0,1-.266.266Z" transform="translate(1001.966 -1027.252)"/>
        <path id="Path_5154" data-name="Path 5154" d="M-979.956,1043.347h3.2v-8.665h-3.2Zm.644-7.7h1.849a.265.265,0,0,1,.265.265.265.265,0,0,1-.265.265h-1.849a.266.266,0,0,1-.266-.265A.265.265,0,0,1-979.312,1035.645Zm0,1.476h1.849a.265.265,0,0,1,.265.266.265.265,0,0,1-.265.265h-1.849a.265.265,0,0,1-.266-.265A.265.265,0,0,1-979.312,1037.121Zm0,1.476h1.849a.265.265,0,0,1,.265.265.265.265,0,0,1-.265.265h-1.849a.265.265,0,0,1-.266-.265A.265.265,0,0,1-979.312,1038.6Zm0,1.476h1.849a.265.265,0,0,1,.265.266.265.265,0,0,1-.265.265h-1.849a.265.265,0,0,1-.266-.265A.266.266,0,0,1-979.312,1040.074Zm0,1.477h1.849a.265.265,0,0,1,.265.265.265.265,0,0,1-.265.265h-1.849a.266.266,0,0,1-.266-.265A.265.265,0,0,1-979.312,1041.551Z" transform="translate(988.978 -1030.319)"/>
        <path id="Path_5155" data-name="Path 5155" d="M-1007.033,1069.2a11.385,11.385,0,0,1-.539-3.307h-2.988a7.9,7.9,0,0,0,1.771,4.731A8.444,8.444,0,0,1-1007.033,1069.2Z" transform="translate(1010.565 -1052.336)"/>
        <path id="Path_5156" data-name="Path 5156" d="M-957.816,1057.3v2h.323A7.865,7.865,0,0,0-957.816,1057.3Z" transform="translate(973.361 -1046.273)"/>
        <path id="Path_5157" data-name="Path 5157" d="M-974.506,1080.148a7.845,7.845,0,0,0-1.587-1.322,8.092,8.092,0,0,1-2.836,3.739A7.932,7.932,0,0,0-974.506,1080.148Z" transform="translate(988.254 -1061.458)"/>
        <path id="Path_5158" data-name="Path 5158" d="M-966.929,1070.624a7.9,7.9,0,0,0,1.769-4.73h-2.988a11.387,11.387,0,0,1-.536,3.3A8.366,8.366,0,0,1-966.929,1070.624Z" transform="translate(981.027 -1052.336)"/>
        <path id="Path_5159" data-name="Path 5159" d="M-994.468,1067.974v-2.08h-4.146a10.887,10.887,0,0,0,.481,3.04A8.453,8.453,0,0,1-994.468,1067.974Z" transform="translate(1002.139 -1052.336)"/>
        <path id="Path_5160" data-name="Path 5160" d="M-998.941,1082.584a8.088,8.088,0,0,1-2.833-3.731,7.912,7.912,0,0,0-1.59,1.315A7.928,7.928,0,0,0-998.941,1082.584Z" transform="translate(1005.489 -1061.477)"/>
        <path id="Path_5161" data-name="Path 5161" d="M-1007.511,1042l-3.066,1.509v5h3.066Zm-.73,5.657h-1.559a.266.266,0,0,1-.266-.266.266.266,0,0,1,.266-.265h1.559a.265.265,0,0,1,.265.265A.265.265,0,0,1-1008.241,1047.661Zm0-1.011h-1.559a.266.266,0,0,1-.266-.266.265.265,0,0,1,.266-.265h1.559a.265.265,0,0,1,.265.265A.266.266,0,0,1-1008.241,1046.651Zm0-1.011h-1.559a.265.265,0,0,1-.266-.265.265.265,0,0,1,.266-.266h1.559a.265.265,0,0,1,.265.266A.265.265,0,0,1-1008.241,1045.64Zm0-1.01h-1.559a.266.266,0,0,1-.266-.266.265.265,0,0,1,.266-.265h1.559a.265.265,0,0,1,.265.265A.265.265,0,0,1-1008.241,1044.629Z" transform="translate(1010.577 -1035.484)"/>
        <path id="Path_5162" data-name="Path 5162" d="M-979.247,1075.68a7.828,7.828,0,0,0-3.493-.931v5A7.388,7.388,0,0,0-979.247,1075.68Z" transform="translate(990.942 -1058.582)"/>
        <path id="Path_5163" data-name="Path 5163" d="M-992.9,1074.755a7.921,7.921,0,0,0-3.491.937,7.388,7.388,0,0,0,3.491,4.062Z" transform="translate(1000.569 -1058.586)"/>
      </g>
    </g>
  </g>
  <g id="Group_38097" data-name="Group 38097" transform="translate(5.192 5.145)">
    <g id="Group_38096" data-name="Group 38096" transform="translate(0 0)">
      <g id="Group_38095" data-name="Group 38095" transform="translate(0)">
        <ellipse id="Ellipse_158" data-name="Ellipse 158" cx="9.073" cy="9.073" rx="9.073" ry="9.073" transform="translate(0 16.765) rotate(-67.5)" fill="none" stroke="#55d6be" stroke-miterlimit="10" stroke-width="0.5" stroke-dasharray="2.015 2.015"/>
      </g>
    </g>
  </g>
  <g id="Group_38099" data-name="Group 38099" transform="translate(3.835 3.773)">
    <g id="Group_38098" data-name="Group 38098">
      <path id="Path_5164" data-name="Path 5164" d="M-1027.863,1041.462a1.117,1.117,0,0,1-.411-.443,1.209,1.209,0,0,1-.131-.613,1.2,1.2,0,0,1,.227-.682,1.055,1.055,0,0,1,.574-.394l-.02.542a.563.563,0,0,0-.26.218.67.67,0,0,0-.1.336.7.7,0,0,0,.083.368.657.657,0,0,0,.262.259.892.892,0,0,0,.408.1.89.89,0,0,0,.412-.074.649.649,0,0,0,.282-.239.7.7,0,0,0,.109-.362.657.657,0,0,0-.074-.341.572.572,0,0,0-.246-.236l.02-.542a1.047,1.047,0,0,1,.545.433,1.2,1.2,0,0,1,.175.7,1.212,1.212,0,0,1-.175.6,1.121,1.121,0,0,1-.441.412,1.219,1.219,0,0,1-.625.134A1.23,1.23,0,0,1-1027.863,1041.462Z" transform="translate(1028.406 -1027.699)"/>
      <path id="Path_5165" data-name="Path 5165" d="M-1024.964,1031.948a1.156,1.156,0,0,1-.53.309,1.205,1.205,0,0,1-.642-.008,1.2,1.2,0,0,1-.554-.318,1.155,1.155,0,0,1-.3-.535,1.221,1.221,0,0,1,.01-.625,1.22,1.22,0,0,1,.31-.546,1.146,1.146,0,0,1,.529-.306,1.2,1.2,0,0,1,.638.008,1.214,1.214,0,0,1,.557.318,1.144,1.144,0,0,1,.3.534,1.217,1.217,0,0,1-.01.626A1.216,1.216,0,0,1-1024.964,1031.948Zm-.091-1.041a.661.661,0,0,0-.2-.316.9.9,0,0,0-.376-.2.9.9,0,0,0-.422-.021.649.649,0,0,0-.328.172.729.729,0,0,0-.189.336.742.742,0,0,0-.008.388.647.647,0,0,0,.195.316.892.892,0,0,0,.375.2.9.9,0,0,0,.423.021.652.652,0,0,0,.332-.173.723.723,0,0,0,.192-.337A.722.722,0,0,0-1025.055,1030.906Z" transform="translate(1027.431 -1021.032)"/>
      <path id="Path_5166" data-name="Path 5166" d="M-1022.037,1023.662l-1.052.043-.1.2.815.419-.216.419-2.091-1.074.4-.785a1.026,1.026,0,0,1,.3-.369.671.671,0,0,1,.362-.138.715.715,0,0,1,.369.082.7.7,0,0,1,.311.312.694.694,0,0,1,.046.474l1.1-.064Zm-1.468.079.18-.35a.4.4,0,0,0,.048-.3.344.344,0,0,0-.186-.2.33.33,0,0,0-.266-.031.4.4,0,0,0-.21.214l-.18.35Z" transform="translate(1025.779 -1015.738)"/>
      <path id="Path_5167" data-name="Path 5167" d="M-1018.72,1016.185a.651.651,0,0,1,.038.384,1.011,1.011,0,0,1-.215.441l-.242.311.712.554-.289.372-1.856-1.443.531-.683a1.052,1.052,0,0,1,.36-.309.661.661,0,0,1,.381-.068.732.732,0,0,1,.354.154A.724.724,0,0,1-1018.72,1016.185Zm-.382.324a.328.328,0,0,0-.14-.228q-.271-.211-.506.092l-.23.295.54.419.229-.295A.407.407,0,0,0-1019.1,1016.508Z" transform="translate(1022.879 -1011.058)"/>
      <path id="Path_5168" data-name="Path 5168" d="M-1012.71,1011.935a1.161,1.161,0,0,1-.612-.044,1.2,1.2,0,0,1-.526-.369,1.191,1.191,0,0,1-.277-.575,1.157,1.157,0,0,1,.055-.61,1.219,1.219,0,0,1,.361-.511,1.215,1.215,0,0,1,.564-.275,1.146,1.146,0,0,1,.609.045,1.2,1.2,0,0,1,.522.367,1.213,1.213,0,0,1,.28.577,1.142,1.142,0,0,1-.054.609,1.217,1.217,0,0,1-.361.511A1.222,1.222,0,0,1-1012.71,1011.935Zm.512-.911a.657.657,0,0,0,.015-.372.9.9,0,0,0-.2-.375.893.893,0,0,0-.337-.255.644.644,0,0,0-.368-.043.725.725,0,0,0-.346.17.734.734,0,0,0-.225.315.643.643,0,0,0-.019.371.9.9,0,0,0,.2.373.9.9,0,0,0,.338.257.658.658,0,0,0,.372.044.729.729,0,0,0,.348-.17A.714.714,0,0,0-1012.2,1011.024Z" transform="translate(1018.345 -1006.677)"/>
      <path id="Path_5169" data-name="Path 5169" d="M-1005.18,1006.848l-.892-.56-.2.106.435.806-.415.224-1.117-2.068.776-.419a1.028,1.028,0,0,1,.455-.137.683.683,0,0,1,.376.091.712.712,0,0,1,.258.276.7.7,0,0,1,.081.433.692.692,0,0,1-.23.417l.948.572Zm-1.255-.765.347-.187a.393.393,0,0,0,.208-.218.342.342,0,0,0-.039-.271.328.328,0,0,0-.2-.176.4.4,0,0,0-.294.057l-.347.187Z" transform="translate(1013.564 -1003.342)"/>
      <path id="Path_5170" data-name="Path 5170" d="M-996.52,1003.364l-.9.274-.017.474-.473.145.119-2.5.525-.161,1.5,2-.476.146Zm-.233-.323-.613-.84-.038,1.039Z" transform="translate(1006.892 -1001.084)"/>
      <path id="Path_5171" data-name="Path 5171" d="M-989.456,999.861l.041.379-.623.066.209,1.959-.469.05-.209-1.959-.623.067-.04-.379Z" transform="translate(1002.141 -999.858)"/>
      <path id="Path_5172" data-name="Path 5172" d="M-983.066,1000.264l-.034.588.79.046-.021.373-.79-.046-.036.622.891.052-.022.383-1.362-.079.137-2.35,1.362.079-.022.383Z" transform="translate(996.837 -999.853)"/>
      <path id="Path_5173" data-name="Path 5173" d="M-973.47,1002.593a.658.658,0,0,1-.345.173,1.021,1.021,0,0,1-.489-.044l-.377-.115-.263.863-.451-.138.686-2.248.828.253a1.046,1.046,0,0,1,.417.226.658.658,0,0,1,.2.332.729.729,0,0,1-.017.386A.734.734,0,0,1-973.47,1002.593Zm-.439-.241a.33.33,0,0,0,.164-.212q.1-.329-.267-.441l-.357-.109-.2.654.357.109A.409.409,0,0,0-973.909,1002.351Z" transform="translate(991.014 -1000.721)"/>
      <path id="Path_5174" data-name="Path 5174" d="M-968.029,1006.3l-.037-1.052-.2-.1-.423.813-.418-.218,1.084-2.085.783.407a1.023,1.023,0,0,1,.368.3.669.669,0,0,1,.136.363.705.705,0,0,1-.083.369.7.7,0,0,1-.313.31.693.693,0,0,1-.474.044l.059,1.1Zm-.071-1.469.349.182a.393.393,0,0,0,.3.05.346.346,0,0,0,.2-.185.33.33,0,0,0,.032-.266.4.4,0,0,0-.213-.211l-.35-.182Z" transform="translate(986.577 -1002.534)"/>
      <path id="Path_5175" data-name="Path 5175" d="M-961.62,1010.748a1.158,1.158,0,0,1-.064-.609,1.207,1.207,0,0,1,.272-.583,1.193,1.193,0,0,1,.518-.373,1.148,1.148,0,0,1,.611-.052,1.215,1.215,0,0,1,.566.267,1.219,1.219,0,0,1,.37.507,1.15,1.15,0,0,1,.061.608,1.2,1.2,0,0,1-.271.578,1.21,1.21,0,0,1-.519.377,1.144,1.144,0,0,1-.61.053,1.222,1.222,0,0,1-.566-.267A1.226,1.226,0,0,1-961.62,1010.748Zm.986.345a.656.656,0,0,0,.369-.05.9.9,0,0,0,.334-.261.884.884,0,0,0,.193-.376.646.646,0,0,0-.022-.37.726.726,0,0,0-.228-.311.741.741,0,0,0-.349-.167.645.645,0,0,0-.369.047.9.9,0,0,0-.333.26.9.9,0,0,0-.194.378.657.657,0,0,0,.021.374.718.718,0,0,0,.228.313A.715.715,0,0,0-960.634,1011.093Z" transform="translate(981.353 -1006.384)"/>
      <path id="Path_5176" data-name="Path 5176" d="M-952.36,1015.982l-2.386.757-.35-.453,1.331-2.12.309.4-1.082,1.656,1.871-.635Z" transform="translate(976.696 -1009.949)"/>
      <path id="Path_5177" data-name="Path 5177" d="M-949.649,1022.4l-2.048,1.155-.232-.411,2.047-1.155Z" transform="translate(974.461 -1015.465)"/>
      <path id="Path_5178" data-name="Path 5178" d="M-947.842,1026.932a1.037,1.037,0,0,1-.228.554,1.231,1.231,0,0,1-.524.367,1.215,1.215,0,0,1-.632.079,1.04,1.04,0,0,1-.538-.258,1.4,1.4,0,0,1-.37-.556l-.3-.766,2.193-.847.3.767A1.4,1.4,0,0,1-947.842,1026.932Zm-1.53.488a.771.771,0,0,0,.6-.017.787.787,0,0,0,.463-.4.763.763,0,0,0-.013-.609l-.12-.311-1.448.56.12.311A.776.776,0,0,0-949.371,1027.42Z" transform="translate(973.404 -1017.947)"/>
      <path id="Path_5179" data-name="Path 5179" d="M-945.776,1034.831l-.579.109.146.778-.368.069-.146-.778-.612.115.164.877-.378.071-.251-1.341,2.314-.434.251,1.341-.378.071Z" transform="translate(971.548 -1024.149)"/>
      <path id="Path_5180" data-name="Path 5180" d="M-946.78,1042.552l.909-.53,0-.222-.916.011-.005-.471,2.351-.029.011.882a1.034,1.034,0,0,1-.09.466.668.668,0,0,1-.256.291.705.705,0,0,1-.364.1.7.7,0,0,1-.421-.13.688.688,0,0,1-.262-.4l-.946.574Zm1.26-.756.005.394a.393.393,0,0,0,.1.285.346.346,0,0,0,.259.091.33.33,0,0,0,.25-.1.4.4,0,0,0,.086-.288l-.005-.394Z" transform="translate(970.84 -1029.096)"/>
    </g>
  </g>
  <path id="Path_5181" data-name="Path 5181" d="M-1008.1,1002.21a2.83,2.83,0,0,1-.54-2.712h0a2.83,2.83,0,0,0-1.406-3.4h0a2.829,2.829,0,0,1-1.536-2.3,2.83,2.83,0,0,0-2.6-2.6h0a2.828,2.828,0,0,1-2.3-1.536h0a2.83,2.83,0,0,0-3.4-1.406,2.829,2.829,0,0,1-2.711-.539h0a2.83,2.83,0,0,0-3.675,0h0a2.83,2.83,0,0,1-2.712.539,2.83,2.83,0,0,0-3.4,1.406h0a2.827,2.827,0,0,1-2.3,1.536h0a2.831,2.831,0,0,0-2.6,2.6,2.828,2.828,0,0,1-1.536,2.3h0a2.83,2.83,0,0,0-1.406,3.4h0a2.83,2.83,0,0,1-.539,2.712,2.829,2.829,0,0,0,0,3.675,2.83,2.83,0,0,1,.539,2.712,2.83,2.83,0,0,0,1.406,3.395,2.829,2.829,0,0,1,1.536,2.3,2.83,2.83,0,0,0,2.6,2.6h0a2.829,2.829,0,0,1,2.3,1.536,2.83,2.83,0,0,0,3.4,1.406h0a2.83,2.83,0,0,1,2.712.539h0a2.831,2.831,0,0,0,3.675,0h0a2.829,2.829,0,0,1,2.711-.539h0a2.83,2.83,0,0,0,3.4-1.406,2.83,2.83,0,0,1,2.3-1.536h0a2.83,2.83,0,0,0,2.6-2.6,2.83,2.83,0,0,1,1.536-2.3,2.83,2.83,0,0,0,1.406-3.395,2.83,2.83,0,0,1,.54-2.712A2.83,2.83,0,0,0-1008.1,1002.21Zm-16.322,16.172a14.351,14.351,0,0,1-14.335-14.335,14.352,14.352,0,0,1,14.335-14.335,14.351,14.351,0,0,1,14.335,14.335A14.351,14.351,0,0,1-1024.422,1018.382Z" transform="translate(1041.422 -987.047)" fill="#ffd6e0"/>
  <ellipse id="Ellipse_159" data-name="Ellipse 159" cx="0.589" cy="0.589" rx="0.589" ry="0.589" transform="translate(4.45 18.762)"/>
  <ellipse id="Ellipse_160" data-name="Ellipse 160" cx="0.483" cy="0.483" rx="0.483" ry="0.483" transform="translate(10.435 27.078)"/>
  <ellipse id="Ellipse_161" data-name="Ellipse 161" cx="0.483" cy="0.483" rx="0.483" ry="0.483" transform="translate(22.697 27.078)"/>
  <ellipse id="Ellipse_162" data-name="Ellipse 162" cx="0.589" cy="0.589" rx="0.589" ry="0.589" transform="translate(28.391 18.762)"/>
  <g id="Group_38102" data-name="Group 38102" transform="translate(12.012 27.209)">
    <g id="Group_38101" data-name="Group 38101">
      <g id="Group_38100" data-name="Group 38100">
        <path id="Path_5182" data-name="Path 5182" d="M-998.807,1081.313a.567.567,0,0,1,.006.383.581.581,0,0,1-.187.279.594.594,0,0,1-.316.126.951.951,0,0,1-.409-.051l-.94-.307.714-2.18.9.295a.985.985,0,0,1,.359.2.573.573,0,0,1,.178.28.55.55,0,0,1-.013.318.524.524,0,0,1-.206.285.573.573,0,0,1-.329.092A.516.516,0,0,1-998.807,1081.313Zm-.579.367a.276.276,0,0,0,.159-.183.287.287,0,0,0-.022-.251.4.4,0,0,0-.227-.163l-.431-.141-.192.587.44.144A.389.389,0,0,0-999.385,1081.68Zm-.41-1.075.4.131a.383.383,0,0,0,.263.008.261.261,0,0,0,.151-.174.266.266,0,0,0-.018-.231.383.383,0,0,0-.217-.15l-.4-.131Z" transform="translate(1000.652 -1079.514)"/>
        <path id="Path_5183" data-name="Path 5183" d="M-991.512,1084.032l-.382-.954-.215-.029-.12.885-.456-.061.308-2.273.853.115a1.006,1.006,0,0,1,.437.154.657.657,0,0,1,.245.288.693.693,0,0,1,.045.366.684.684,0,0,1-.185.388.674.674,0,0,1-.421.2l.419.995Zm-.55-1.325.381.052a.382.382,0,0,0,.289-.052.336.336,0,0,0,.125-.237.321.321,0,0,0-.058-.255.394.394,0,0,0-.265-.124l-.381-.052Z" transform="translate(995.032 -1080.951)"/>
        <path id="Path_5184" data-name="Path 5184" d="M-983.323,1084.028l-.911.055-.125.445-.482.029.686-2.342.534-.032.961,2.244-.486.029Zm-.146-.36-.389-.938-.274.977Z" transform="translate(989.5 -1081.361)"/>
        <path id="Path_5185" data-name="Path 5185" d="M-976.055,1083.266a.717.717,0,0,1-.353-.154.619.619,0,0,1-.2-.325l.478-.122a.319.319,0,0,0,.152.192.354.354,0,0,0,.261.018.383.383,0,0,0,.226-.137.252.252,0,0,0,.039-.219.234.234,0,0,0-.1-.147.445.445,0,0,0-.177-.062,2.686,2.686,0,0,0-.271-.017,2.839,2.839,0,0,1-.384-.036.638.638,0,0,1-.28-.129.548.548,0,0,1-.183-.31.617.617,0,0,1,.011-.369.65.65,0,0,1,.22-.3,1.032,1.032,0,0,1,.388-.182.913.913,0,0,1,.6.024.639.639,0,0,1,.356.406l-.49.125a.262.262,0,0,0-.145-.165.377.377,0,0,0-.259-.014.319.319,0,0,0-.192.12.25.25,0,0,0-.028.214.205.205,0,0,0,.1.133.467.467,0,0,0,.171.058c.065.009.154.017.268.021a2.684,2.684,0,0,1,.386.037.654.654,0,0,1,.284.131.546.546,0,0,1,.184.309.645.645,0,0,1-.008.354.676.676,0,0,1-.208.313.957.957,0,0,1-.4.2A1.081,1.081,0,0,1-976.055,1083.266Z" transform="translate(983.879 -1080.479)"/>
        <path id="Path_5186" data-name="Path 5186" d="M-970.381,1079.394l.871,2.122-.425.175-.872-2.122Z" transform="translate(979.6 -1079.394)"/>
      </g>
    </g>
  </g>
</svg>
