<svg xmlns="http://www.w3.org/2000/svg" width="34.008" height="34.017" viewBox="0 0 34.008 34.017">
  <g id="government_funded_provider" data-name="government funded provider" transform="translate(0.006 0.008)">
    <circle id="Ellipse_163" data-name="Ellipse 163" cx="14.841" cy="14.841" r="14.841" transform="translate(2.206 2.144)" fill="teal"/>
    <g id="Group_38106" data-name="Group 38106" transform="translate(5.272 5.225)">
      <g id="Group_38105" data-name="Group 38105">
        <g id="Group_38104" data-name="Group 38104">
          <ellipse id="Ellipse_164" data-name="Ellipse 164" cx="10.066" cy="10.065" rx="10.066" ry="10.065" transform="translate(0 19.774) rotate(-79.189)" fill="purple"/>
        </g>
      </g>
    </g>
    <g id="Group_38107" data-name="Group 38107" transform="translate(6.433 6.386)">
      <circle id="Ellipse_165" data-name="Ellipse 165" cx="9.073" cy="9.073" r="9.073" transform="translate(0 17.825) rotate(-79.189)" fill="none" stroke="#fff" stroke-miterlimit="10" stroke-width="0.5" stroke-dasharray="2"/>
    </g>
    <g id="Group_38109" data-name="Group 38109" transform="translate(4.167 4.1)">
      <g id="Group_38108" data-name="Group 38108">
        <path id="Path_5187" data-name="Path 5187" d="M-1161.32,1040.3a.442.442,0,0,0-.132.216.536.536,0,0,0,0,.271.576.576,0,0,0,.145.269.516.516,0,0,0,.257.144.7.7,0,0,0,.331-.007.694.694,0,0,0,.3-.152.519.519,0,0,0,.159-.251.612.612,0,0,0,0-.316.535.535,0,0,0-.2-.315.548.548,0,0,0-.353-.1l.155.627-.279.069-.245-.987.319-.079a.879.879,0,0,1,.391.069.9.9,0,0,1,.337.245.938.938,0,0,1,.2.4.99.99,0,0,1,0,.506.893.893,0,0,1-.248.417.971.971,0,0,1-.45.241.984.984,0,0,1-.512,0,.886.886,0,0,1-.414-.251.986.986,0,0,1-.237-.445.989.989,0,0,1,.017-.573.791.791,0,0,1,.344-.418Z" transform="translate(1162.158 -1024.903)" fill="#fff"/>
        <path id="Path_5188" data-name="Path 5188" d="M-1161.08,1033.83a.915.915,0,0,1-.321.37.966.966,0,0,1-.487.159.954.954,0,0,1-.5-.1.923.923,0,0,1-.364-.328.971.971,0,0,1-.153-.476.97.97,0,0,1,.093-.492.926.926,0,0,1,.321-.368.967.967,0,0,1,.485-.158.97.97,0,0,1,.5.1.913.913,0,0,1,.364.327.972.972,0,0,1,.154.476A.966.966,0,0,1-1161.08,1033.83Zm-.337-.764a.536.536,0,0,0-.231-.188.73.73,0,0,0-.335-.052.709.709,0,0,0-.325.093.517.517,0,0,0-.2.215.575.575,0,0,0-.057.3.587.587,0,0,0,.094.295.523.523,0,0,0,.228.19.713.713,0,0,0,.334.052.712.712,0,0,0,.325-.093.522.522,0,0,0,.206-.216.587.587,0,0,0,.058-.3.583.583,0,0,0-.1-.3Z" transform="translate(1162.929 -1019.785)" fill="#fff"/>
        <path id="Path_5189" data-name="Path 5189" d="M-1162.76,1025.15l1.786.9-.052.454-1.945.469.046-.4,1.543-.342-1.424-.682Z" transform="translate(1162.968 -1014.643)" fill="#fff"/>
        <path id="Path_5190" data-name="Path 5190" d="M-1161.49,1020.89l.455.121.164-.611.288.078-.164.611.481.129.185-.689.3.079-.282,1.053-1.817-.487.282-1.053.3.08Z" transform="translate(1162.204 -1011.097)" fill="#fff"/>
        <path id="Path_5191" data-name="Path 5191" d="M-1158.26,1015.62l-.835.1-.069.164.675.284-.146.348-1.732-.728.273-.65a.822.822,0,0,1,.215-.313.537.537,0,0,1,.28-.132.569.569,0,0,1,.3.043.563.563,0,0,1,.267.229.557.557,0,0,1,.066.375l.876-.12Zm-1.165.153.122-.29a.314.314,0,0,0,.02-.24.276.276,0,0,0-.161-.149.261.261,0,0,0-.214-.008.324.324,0,0,0-.155.183l-.122.29Z" transform="translate(1161.13 -1007.264)" fill="#fff"/>
        <path id="Path_5192" data-name="Path 5192" d="M-1155.23,1008.72l-.2.319-1.545.038,1.092.684-.2.319-1.594-1,.2-.319,1.547-.037-1.094-.686.2-.319Z" transform="translate(1159.236 -1002.352)" fill="#fff"/>
        <path id="Path_5193" data-name="Path 5193" d="M-1152.09,1000.87l1.371,1.284-.257.275-.892-.835.548,1.2-.2.208-1.237-.466.891.835-.257.275-1.371-1.284.293-.312,1.427.519-.611-1.391Z" transform="translate(1156.283 -997.519)" fill="#fff"/>
        <path id="Path_5194" data-name="Path 5194" d="M-1146.63,998.021l.285.375.5-.383.181.238-.5.383.3.4.567-.432.186.244-.867.66-1.139-1.5.867-.659.186.244Z" transform="translate(1151.783 -995.032)" fill="#fff"/>
        <path id="Path_5195" data-name="Path 5195" d="M-1140.31,995.292l-.331.181-1.368-.719.621,1.129-.33.182-.906-1.648.33-.182,1.37.722-.622-1.132.331-.182Z" transform="translate(1148.62 -992.422)" fill="#fff"/>
        <path id="Path_5196" data-name="Path 5196" d="M-1135.03,991.392l.1.285-.47.172.54,1.479-.354.129-.54-1.479-.47.172-.1-.286Z" transform="translate(1144.173 -990.833)" fill="#fff"/>
        <path id="Path_5197" data-name="Path 5197" d="M-1126.93,989.778l.05.3-.773.129.08.475.592-.1.049.295-.592.1.13.783-.371.062-.309-1.853Z" transform="translate(1138.351 -989.695)" fill="#fff"/>
        <path id="Path_5198" data-name="Path 5198" d="M-1122.21,989.518l.023,1.162a.4.4,0,0,0,.106.29.375.375,0,0,0,.282.1.381.381,0,0,0,.28-.106.4.4,0,0,0,.094-.294l-.023-1.162.379-.008.023,1.16a.751.751,0,0,1-.1.407.657.657,0,0,1-.272.254.871.871,0,0,1-.384.091.857.857,0,0,1-.382-.076.639.639,0,0,1-.276-.244.774.774,0,0,1-.107-.4l-.023-1.16Z" transform="translate(1134.484 -989.495)" fill="#fff"/>
        <path id="Path_5199" data-name="Path 5199" d="M-1114.76,991.7l-.373-.056-.652-1.4-.191,1.275-.373-.056.279-1.86.372.056.652,1.4.192-1.277.373.056Z" transform="translate(1130.083 -989.573)" fill="#fff"/>
        <path id="Path_5200" data-name="Path 5200" d="M-1108.33,991.392a.825.825,0,0,1,.231.42.979.979,0,0,1-.034.51.973.973,0,0,1-.266.434.836.836,0,0,1-.43.206,1.124,1.124,0,0,1-.531-.048l-.626-.2.569-1.79.626.2a1.116,1.116,0,0,1,.461.268Zm-.461,1.2a.613.613,0,0,0,.291-.384.633.633,0,0,0-.015-.487.611.611,0,0,0-.386-.3l-.254-.081-.376,1.183.254.081a.618.618,0,0,0,.487-.015Z" transform="translate(1125.595 -990.504)" fill="#fff"/>
        <path id="Path_5201" data-name="Path 5201" d="M-1102.98,993.817l-.211.421.566.283-.134.267-.565-.284-.223.445.638.32-.138.274-.974-.488.844-1.681.974.489-.138.274Z" transform="translate(1121.388 -992.231)" fill="#fff"/>
        <path id="Path_5202" data-name="Path 5202" d="M-1097.92,996.716a.824.824,0,0,1,.094.469.977.977,0,0,1-.185.477.96.96,0,0,1-.384.334.825.825,0,0,1-.472.068,1.123,1.123,0,0,1-.493-.2l-.537-.377,1.079-1.537.537.378A1.126,1.126,0,0,1-1097.92,996.716Zm-.8,1a.616.616,0,0,0,.393-.28.632.632,0,0,0,.132-.468.61.61,0,0,0-.28-.4l-.218-.153-.713,1.015.218.153a.618.618,0,0,0,.468.138Z" transform="translate(1118.479 -994.045)" fill="#fff"/>
        <path id="Path_5203" data-name="Path 5203" d="M-1091.64,1003.5a.526.526,0,0,1-.308-.02.817.817,0,0,1-.32-.227l-.214-.231-.53.49-.256-.277,1.379-1.275.469.508a.839.839,0,0,1,.2.323.523.523,0,0,1,0,.31.588.588,0,0,1-.167.259.59.59,0,0,1-.253.14Zm-.206-.343a.262.262,0,0,0,.2-.081q.2-.186-.007-.412l-.2-.219-.4.371.2.219a.326.326,0,0,0,.2.115Z" transform="translate(1113.804 -998.285)" fill="#fff"/>
        <path id="Path_5204" data-name="Path 5204" d="M-1089.15,1008.51l.37-.755-.1-.147-.6.414-.212-.311,1.55-1.061.4.582a.824.824,0,0,1,.146.35.533.533,0,0,1-.041.307.561.561,0,0,1-.2.228.557.557,0,0,1-.337.1.555.555,0,0,1-.351-.148l-.375.8Zm.5-1.061.178.26a.314.314,0,0,0,.19.147.276.276,0,0,0,.213-.053.266.266,0,0,0,.123-.176.323.323,0,0,0-.07-.229l-.178-.26Z" transform="translate(1111.281 -1001.595)" fill="#fff"/>
        <path id="Path_5205" data-name="Path 5205" d="M-1085.68,1013.82a.928.928,0,0,1,.165-.462.958.958,0,0,1,.4-.325.952.952,0,0,1,.5-.091.929.929,0,0,1,.459.173.969.969,0,0,1,.316.387.981.981,0,0,1,.092.493.922.922,0,0,1-.165.459.967.967,0,0,1-.4.324.966.966,0,0,1-.5.093.912.912,0,0,1-.458-.172.976.976,0,0,1-.316-.387.975.975,0,0,1-.1-.492Zm.592.589a.526.526,0,0,0,.285.091.715.715,0,0,0,.33-.073.7.7,0,0,0,.269-.2.514.514,0,0,0,.111-.274.58.58,0,0,0-.057-.3.6.6,0,0,0-.2-.241.519.519,0,0,0-.282-.093.707.707,0,0,0-.33.073.719.719,0,0,0-.269.2.528.528,0,0,0-.113.277.579.579,0,0,0,.057.3.573.573,0,0,0,.192.241Z" transform="translate(1108.455 -1006.033)" fill="#fff"/>
        <path id="Path_5206" data-name="Path 5206" d="M-1081.18,1020.83l-1.992-.183-.118-.442,1.638-1.149.1.39-1.31.883,1.575.113Z" transform="translate(1106.765 -1010.348)" fill="#fff"/>
        <path id="Path_5207" data-name="Path 5207" d="M-1080.4,1026.79l-1.859.269-.054-.373,1.859-.269Z" transform="translate(1106.073 -1015.538)" fill="#fff"/>
        <path id="Path_5208" data-name="Path 5208" d="M-1080.12,1030.66a.829.829,0,0,1-.32.356.984.984,0,0,1-.493.136.966.966,0,0,1-.5-.109.829.829,0,0,1-.336-.338,1.124,1.124,0,0,1-.13-.518l-.017-.656,1.877-.05.017.656A1.116,1.116,0,0,1-1080.12,1030.66Zm-1.282-.042a.615.615,0,0,0,.459.149.626.626,0,0,0,.454-.174.607.607,0,0,0,.154-.461l-.008-.267-1.24.034.007.266a.621.621,0,0,0,.166.445Z" transform="translate(1105.797 -1017.696)" fill="#fff"/>
        <path id="Path_5209" data-name="Path 5209" d="M-1080.68,1036.52l-.468-.057-.076.628-.3-.036.076-.627-.494-.06-.086.708-.305-.037.132-1.082,1.867.227-.131,1.082-.3-.037Z" transform="translate(1106.09 -1022.27)" fill="#fff"/>
        <path id="Path_5210" data-name="Path 5210" d="M-1083.59,1041.51l.814-.214.045-.171-.708-.187.1-.364,1.815.481-.18.681a.831.831,0,0,1-.169.339.545.545,0,0,1-.26.169.553.553,0,0,1-.3,0,.557.557,0,0,1-.3-.189.551.551,0,0,1-.117-.362l-.851.24Zm1.132-.313-.081.3a.316.316,0,0,0,.013.24.277.277,0,0,0,.18.125.264.264,0,0,0,.214-.021.323.323,0,0,0,.127-.2l.081-.3Z" transform="translate(1107.058 -1025.522)" fill="#fff"/>
      </g>
    </g>
    <path id="Path_5211" data-name="Path 5211" d="M-1143.79,990.742a2.829,2.829,0,0,1-.54-2.711h0a2.83,2.83,0,0,0-1.406-3.4h0a2.829,2.829,0,0,1-1.536-2.3,2.83,2.83,0,0,0-2.6-2.6h0a2.829,2.829,0,0,1-2.3-1.536h0a2.83,2.83,0,0,0-3.395-1.406,2.829,2.829,0,0,1-2.711-.539h0a2.829,2.829,0,0,0-3.675,0h0a2.829,2.829,0,0,1-2.712.539,2.83,2.83,0,0,0-3.395,1.406h0a2.829,2.829,0,0,1-2.3,1.536h0a2.83,2.83,0,0,0-2.6,2.6,2.828,2.828,0,0,1-1.536,2.3h0a2.831,2.831,0,0,0-1.406,3.4h0a2.828,2.828,0,0,1-.539,2.711,2.829,2.829,0,0,0,0,3.675,2.829,2.829,0,0,1,.539,2.712,2.831,2.831,0,0,0,1.406,3.4,2.829,2.829,0,0,1,1.536,2.3,2.83,2.83,0,0,0,2.6,2.6h0a2.83,2.83,0,0,1,2.3,1.536,2.83,2.83,0,0,0,3.4,1.406h0a2.83,2.83,0,0,1,2.712.54h0a2.83,2.83,0,0,0,3.675,0h0a2.83,2.83,0,0,1,2.711-.54h0a2.83,2.83,0,0,0,3.4-1.406,2.83,2.83,0,0,1,2.3-1.536h0a2.829,2.829,0,0,0,2.6-2.6,2.83,2.83,0,0,1,1.536-2.3,2.83,2.83,0,0,0,1.406-3.4,2.83,2.83,0,0,1,.54-2.712A2.829,2.829,0,0,0-1143.79,990.742Zm-16.323,16.173a14.351,14.351,0,0,1-14.335-14.335,14.351,14.351,0,0,1,14.335-14.335,14.351,14.351,0,0,1,14.335,14.335,14.351,14.351,0,0,1-14.332,14.33Z" transform="translate(1177.113 -975.58)" fill="purple"/>
    <circle id="Ellipse_166" data-name="Ellipse 166" cx="0.589" cy="0.589" r="0.589" transform="translate(5.455 21.649)" fill="#fff"/>
    <circle id="Ellipse_167" data-name="Ellipse 167" cx="0.483" cy="0.483" r="0.483" transform="translate(10.435 27.078)" fill="#fff"/>
    <circle id="Ellipse_168" data-name="Ellipse 168" cx="0.483" cy="0.483" r="0.483" transform="translate(22.698 27.078)" fill="#fff"/>
    <circle id="Ellipse_169" data-name="Ellipse 169" cx="0.589" cy="0.589" r="0.589" transform="translate(27.38 21.649)" fill="#fff"/>
    <g id="Group_38112" data-name="Group 38112" transform="translate(12.012 27.209)">
      <g id="Group_38111" data-name="Group 38111">
        <g id="Group_38110" data-name="Group 38110">
          <path id="Path_5212" data-name="Path 5212" d="M-1134.5,1069.85a.564.564,0,0,1,.006.383.581.581,0,0,1-.186.28.6.6,0,0,1-.317.126.95.95,0,0,1-.408-.051l-.94-.308.714-2.179.9.3a.979.979,0,0,1,.359.2.573.573,0,0,1,.178.28.548.548,0,0,1-.012.317.522.522,0,0,1-.206.286.566.566,0,0,1-.33.092A.518.518,0,0,1-1134.5,1069.85Zm-.578.367a.276.276,0,0,0,.159-.183.287.287,0,0,0-.022-.25.4.4,0,0,0-.227-.163l-.431-.141-.192.587.44.145a.392.392,0,0,0,.281.008Zm-.41-1.075.4.131a.387.387,0,0,0,.263.008.261.261,0,0,0,.151-.173.267.267,0,0,0-.018-.231.381.381,0,0,0-.217-.15l-.4-.131Z" transform="translate(1136.341 -1068.049)" fill="#fff"/>
          <path id="Path_5213" data-name="Path 5213" d="M-1127.2,1072.57l-.381-.953-.215-.029-.12.885-.456-.062.308-2.273.853.115a1,1,0,0,1,.437.154.65.65,0,0,1,.244.288.689.689,0,0,1,.045.366.686.686,0,0,1-.185.388.68.68,0,0,1-.421.2l.419.995Zm-.55-1.324.381.051a.387.387,0,0,0,.289-.052.338.338,0,0,0,.125-.238.321.321,0,0,0-.058-.255.4.4,0,0,0-.265-.124l-.381-.052Z" transform="translate(1130.721 -1069.486)" fill="#fff"/>
          <path id="Path_5214" data-name="Path 5214" d="M-1119.01,1072.56l-.912.055-.125.445-.482.029.686-2.342.535-.032.961,2.244-.485.029Zm-.146-.359-.389-.938-.274.978Z" transform="translate(1125.19 -1069.897)" fill="#fff"/>
          <path id="Path_5215" data-name="Path 5215" d="M-1111.74,1071.8a.714.714,0,0,1-.353-.154.623.623,0,0,1-.2-.325l.478-.122a.318.318,0,0,0,.152.192.354.354,0,0,0,.261.018.381.381,0,0,0,.226-.137.251.251,0,0,0,.039-.219.234.234,0,0,0-.1-.147.448.448,0,0,0-.177-.061,2.577,2.577,0,0,0-.271-.018,2.833,2.833,0,0,1-.384-.036.636.636,0,0,1-.281-.129.55.55,0,0,1-.182-.311.619.619,0,0,1,.011-.369.649.649,0,0,1,.22-.3,1.04,1.04,0,0,1,.388-.182.908.908,0,0,1,.6.025.637.637,0,0,1,.356.406l-.49.125a.263.263,0,0,0-.146-.164.381.381,0,0,0-.26-.014.317.317,0,0,0-.191.12.25.25,0,0,0-.029.215.206.206,0,0,0,.1.133.468.468,0,0,0,.171.058,2.678,2.678,0,0,0,.268.021,2.693,2.693,0,0,1,.386.038.652.652,0,0,1,.284.131.55.55,0,0,1,.184.309.647.647,0,0,1-.008.354.676.676,0,0,1-.208.313.956.956,0,0,1-.4.2A1.084,1.084,0,0,1-1111.74,1071.8Z" transform="translate(1119.568 -1069.015)" fill="#fff"/>
          <path id="Path_5216" data-name="Path 5216" d="M-1106.07,1067.93l.871,2.122-.425.175-.871-2.122Z" transform="translate(1115.289 -1067.929)" fill="#fff"/>
        </g>
      </g>
    </g>
    <g id="Group_38124" data-name="Group 38124" transform="translate(10.004 10.359)">
      <g id="Group_38117" data-name="Group 38117" transform="translate(2.003 -0.002)">
        <g id="Group_38116" data-name="Group 38116" transform="translate(0)">
          <g id="Group_38113" data-name="Group 38113" transform="translate(1.435)">
            <path id="Path_5217" data-name="Path 5217" d="M-1136.073,1018.865h6.562a.273.273,0,0,0,.273-.273.273.273,0,0,0-.273-.273h-.014a3.277,3.277,0,0,0-2.72-2.958v-.391h-.479v-.957a.069.069,0,0,0-.068-.069.07.07,0,0,0-.069.069v.957h-.478v.391a3.279,3.279,0,0,0-2.72,2.958h-.014a.273.273,0,0,0-.273.273.274.274,0,0,0,.08.194A.274.274,0,0,0-1136.073,1018.865Z" transform="translate(1136.348 -1013.943)" fill="#fff"/>
          </g>
          <g id="Group_38114" data-name="Group 38114" transform="translate(0 7.958)">
            <path id="Path_5218" data-name="Path 5218" d="M-1131.11,1042.169h-.342v-3.144h.342a.341.341,0,0,0,.242-.1.342.342,0,0,0,.1-.242.342.342,0,0,0-.342-.342h-9.3a.342.342,0,0,0-.342.342.341.341,0,0,0,.1.242.341.341,0,0,0,.242.1h.342v3.144h-.342a.342.342,0,0,0-.342.342.341.341,0,0,0,.1.242.341.341,0,0,0,.242.1h9.3a.341.341,0,0,0,.242-.1.342.342,0,0,0,.1-.242A.342.342,0,0,0-1131.11,1042.169Zm-1.3,0h-.574v-3.144h.574Zm-3.636-3.144h.573v3.144h-.573Zm-.957,3.144h-.574v-3.144h.574Zm2.488-3.144h.573v3.144h-.573Zm-4.594,0h.574v3.144h-.574Z" transform="translate(1140.749 -1038.341)" fill="#fff"/>
          </g>
          <g id="Group_38115" data-name="Group 38115" transform="translate(0.997 5.4)">
            <path id="Path_5219" data-name="Path 5219" d="M-1137.471,1031.186h.344v1.49h.684v-1.49h.325v1.49h.683v-1.49h.324v1.49h.683v-1.49h.325v1.49h.684v-1.49h.324v1.49h.684v-1.49h.324v1.49h.684v-1.49h.324v1.49h.684v-1.49h.344a.341.341,0,0,0,.341-.341.342.342,0,0,0-.341-.342h-7.382a.342.342,0,0,0-.342.342A.34.34,0,0,0-1137.471,1031.186Z" transform="translate(1137.773 -1030.503)" fill="#fff"/>
          </g>
        </g>
      </g>
    </g>
  </g>
</svg>
