<svg id="private_provider" data-name="private provider" xmlns="http://www.w3.org/2000/svg" xmlns:xlink="http://www.w3.org/1999/xlink" width="34" height="34" viewBox="0 0 34 34">
  <defs>
    <clipPath id="clip-path">
      <ellipse id="Ellipse_182" data-name="Ellipse 182" cx="10.065" cy="10.065" rx="10.065" ry="10.065" transform="translate(0 19.774) rotate(-79.189)" fill="none"/>
    </clipPath>
  </defs>
  <g id="Group_38144" data-name="Group 38144" transform="translate(0 0)">
    <g id="Group_38143" data-name="Group 38143">
      <ellipse id="Ellipse_177" data-name="Ellipse 177" cx="14.841" cy="14.841" rx="14.841" ry="14.841" transform="translate(2.03 2.487)" fill="#f1fec6"/>
      <ellipse id="Ellipse_178" data-name="Ellipse 178" cx="10.065" cy="10.065" rx="10.065" ry="10.065" transform="translate(5.272 24.999) rotate(-79.189)" fill="#b6d6cc"/>
      <g id="Group_38139" data-name="Group 38139" transform="translate(4.206 3.812)">
        <g id="Group_38138" data-name="Group 38138">
          <path id="Path_5243" data-name="Path 5243" d="M-887.955,1036.279a.654.654,0,0,1,.172.345,1.015,1.015,0,0,1-.044.488l-.115.377.863.265-.138.451-2.247-.689.254-.828a1.045,1.045,0,0,1,.226-.417.661.661,0,0,1,.332-.2.731.731,0,0,1,.386.018A.737.737,0,0,1-887.955,1036.279Zm-.242.439a.327.327,0,0,0-.212-.164q-.328-.1-.441.266l-.11.357.654.2.11-.357A.408.408,0,0,0-888.2,1036.718Z" transform="translate(889.465 -1027.428)"/>
          <path id="Path_5244" data-name="Path 5244" d="M-884.246,1030.316l-1.052.036-.1.2.812.423-.218.418-2.085-1.086.408-.782a1.032,1.032,0,0,1,.3-.368.675.675,0,0,1,.363-.136.709.709,0,0,1,.368.084.7.7,0,0,1,.31.313.692.692,0,0,1,.043.474l1.105-.058Zm-1.468.07.182-.349a.4.4,0,0,0,.05-.3.345.345,0,0,0-.185-.2.327.327,0,0,0-.266-.032.4.4,0,0,0-.211.212l-.182.349Z" transform="translate(887.65 -1022.465)"/>
          <path id="Path_5245" data-name="Path 5245" d="M-882.595,1025.019l1.917,1.359-.273.384-1.917-1.36Z" transform="translate(884.811 -1019.644)"/>
          <path id="Path_5246" data-name="Path 5246" d="M-879.353,1017.818l1.1,2.248-.4.414-2.294-1,.349-.365,1.8.826-.905-1.757Z" transform="translate(883.452 -1014.565)"/>
          <path id="Path_5247" data-name="Path 5247" d="M-870.144,1015.489l-.775.526.124.458-.41.278-.624-2.422.454-.308,2.022,1.472-.412.28Zm-.318-.24-.834-.623.271,1Z" transform="translate(877.024 -1011.886)"/>
          <path id="Path_5248" data-name="Path 5248" d="M-864.705,1009.3l.151.349-.575.248.781,1.809-.433.187-.781-1.809-.575.248-.151-.349Z" transform="translate(873.117 -1008.557)"/>
          <path id="Path_5249" data-name="Path 5249" d="M-858.334,1008.121l.143.572.768-.193.091.363-.767.193.151.6.866-.217.093.372-1.323.331-.572-2.283,1.323-.332.094.372Z" transform="translate(867.894 -1007.309)"/>
          <path id="Path_5250" data-name="Path 5250" d="M-847.195,1007.853a.652.652,0,0,1-.277.268,1.013,1.013,0,0,1-.479.1l-.394,0,.006.9-.471,0-.016-2.35.865-.006a1.045,1.045,0,0,1,.465.091.659.659,0,0,1,.29.257.731.731,0,0,1,.1.373A.732.732,0,0,1-847.195,1007.853Zm-.491-.1a.328.328,0,0,0,.093-.252c0-.229-.13-.343-.386-.341l-.374,0,0,.684.374,0A.407.407,0,0,0-847.686,1007.754Z" transform="translate(860.8 -1006.777)"/>
          <path id="Path_5251" data-name="Path 5251" d="M-841.01,1009.5l-.348-.993-.219-.039-.162.9-.464-.083.416-2.313.869.156a1.023,1.023,0,0,1,.44.177.665.665,0,0,1,.237.306.707.707,0,0,1,.03.376.7.7,0,0,1-.207.389.694.694,0,0,1-.44.182l.385,1.038Zm-.5-1.381.388.07a.393.393,0,0,0,.3-.04.346.346,0,0,0,.138-.237.329.329,0,0,0-.048-.264.4.4,0,0,0-.266-.138l-.388-.07Z" transform="translate(856.128 -1006.915)"/>
          <path id="Path_5252" data-name="Path 5252" d="M-834.294,1011.631a1.159,1.159,0,0,1-.243-.563,1.2,1.2,0,0,1,.085-.636,1.2,1.2,0,0,1,.383-.511,1.158,1.158,0,0,1,.567-.232,1.219,1.219,0,0,1,.62.085,1.214,1.214,0,0,1,.5.373,1.144,1.144,0,0,1,.24.562,1.2,1.2,0,0,1-.085.632,1.209,1.209,0,0,1-.383.515,1.13,1.13,0,0,1-.566.233,1.216,1.216,0,0,1-.62-.085A1.223,1.223,0,0,1-834.294,1011.631Zm1.044.034a.655.655,0,0,0,.337-.159.9.9,0,0,0,.241-.349.888.888,0,0,0,.071-.416.651.651,0,0,0-.131-.347.725.725,0,0,0-.311-.228.737.737,0,0,0-.383-.055.649.649,0,0,0-.338.155.888.888,0,0,0-.24.347.9.9,0,0,0-.072.418.653.653,0,0,0,.132.351.723.723,0,0,0,.311.23A.715.715,0,0,0-833.25,1011.665Z" transform="translate(850.729 -1008.823)"/>
          <path id="Path_5253" data-name="Path 5253" d="M-823.109,1013.9l-2.052,1.435-.47-.328.637-2.421.414.289-.539,1.9,1.6-1.165Z" transform="translate(844.438 -1010.873)"/>
          <path id="Path_5254" data-name="Path 5254" d="M-819.311,1018.7l-1.612,1.711-.343-.323,1.611-1.711Z" transform="translate(841.359 -1014.957)"/>
          <path id="Path_5255" data-name="Path 5255" d="M-816.446,1022.408a1.036,1.036,0,0,1-.054.6,1.232,1.232,0,0,1-.392.506,1.21,1.21,0,0,1-.58.263,1.046,1.046,0,0,1-.59-.087,1.406,1.406,0,0,1-.518-.422l-.509-.645,1.844-1.457.509.645A1.4,1.4,0,0,1-816.446,1022.408Zm-1.317.919a.771.771,0,0,0,.572-.195.786.786,0,0,0,.325-.514.764.764,0,0,0-.192-.578l-.206-.262-1.218.963.207.261A.774.774,0,0,0-817.763,1023.326Z" transform="translate(839.825 -1016.924)"/>
          <path id="Path_5256" data-name="Path 5256" d="M-812.436,1029.248l-.521.275.37.7-.331.175-.369-.7-.551.291.417.789-.339.179-.637-1.206,2.082-1.1.637,1.206-.34.18Z" transform="translate(836.515 -1022.206)"/>
          <path id="Path_5257" data-name="Path 5257" d="M-811.389,1036.9l.711-.777-.069-.211-.871.283-.146-.448,2.235-.727.273.839a1.026,1.026,0,0,1,.052.472.67.67,0,0,1-.157.354.707.707,0,0,1-.318.2.7.7,0,0,1-.44,0,.7.7,0,0,1-.369-.3l-.732.829Zm.978-1.1.122.375a.394.394,0,0,0,.177.244.344.344,0,0,0,.274.01.329.329,0,0,0,.21-.167.4.4,0,0,0,0-.3l-.122-.375Z" transform="translate(834.657 -1026.695)"/>
        </g>
      </g>
      <path id="Path_5258" data-name="Path 5258" d="M-870.42,1009a2.83,2.83,0,0,1-.54-2.711h0a2.829,2.829,0,0,0-1.406-3.4h0a2.829,2.829,0,0,1-1.536-2.3,2.83,2.83,0,0,0-2.6-2.6h0a2.829,2.829,0,0,1-2.3-1.536h0a2.83,2.83,0,0,0-3.4-1.406,2.829,2.829,0,0,1-2.711-.539h0a2.83,2.83,0,0,0-3.675,0h0a2.829,2.829,0,0,1-2.711.539,2.829,2.829,0,0,0-3.395,1.406h0a2.83,2.83,0,0,1-2.3,1.536h0a2.829,2.829,0,0,0-2.6,2.6,2.83,2.83,0,0,1-1.536,2.3h0a2.83,2.83,0,0,0-1.406,3.4h0a2.831,2.831,0,0,1-.539,2.711,2.829,2.829,0,0,0,0,3.675,2.831,2.831,0,0,1,.539,2.711,2.83,2.83,0,0,0,1.406,3.4,2.83,2.83,0,0,1,1.536,2.3,2.829,2.829,0,0,0,2.6,2.6h0a2.83,2.83,0,0,1,2.3,1.536,2.829,2.829,0,0,0,3.395,1.406h0a2.829,2.829,0,0,1,2.711.539h0a2.83,2.83,0,0,0,3.675,0h0a2.829,2.829,0,0,1,2.711-.539h0a2.83,2.83,0,0,0,3.4-1.406,2.829,2.829,0,0,1,2.3-1.536h0a2.83,2.83,0,0,0,2.6-2.6,2.829,2.829,0,0,1,1.536-2.3,2.83,2.83,0,0,0,1.406-3.4,2.831,2.831,0,0,1,.54-2.711A2.83,2.83,0,0,0-870.42,1009Zm-16.322,16.173a14.351,14.351,0,0,1-14.335-14.335A14.351,14.351,0,0,1-886.742,996.5a14.351,14.351,0,0,1,14.335,14.335A14.351,14.351,0,0,1-886.742,1025.175Z" transform="translate(903.742 -993.84)" fill="#b6d6cc"/>
      <ellipse id="Ellipse_179" data-name="Ellipse 179" cx="0.589" cy="0.589" rx="0.589" ry="0.589" transform="translate(4.272 15.553)"/>
      <path id="Path_5259" data-name="Path 5259" d="M-867.359,1086.492c0,.267-.216.216-.483.216a.483.483,0,0,1-.483-.483.483.483,0,0,1,.483-.483C-867.575,1085.743-867.359,1086.226-867.359,1086.492Z" transform="translate(878.759 -1058.666)"/>
      <ellipse id="Ellipse_180" data-name="Ellipse 180" cx="0.483" cy="0.483" rx="0.483" ry="0.483" transform="translate(22.698 27.077)"/>
      <ellipse id="Ellipse_181" data-name="Ellipse 181" cx="0.589" cy="0.589" rx="0.589" ry="0.589" transform="translate(28.559 15.553)"/>
      <g id="Group_38142" data-name="Group 38142" transform="translate(12.012 27.208)">
        <g id="Group_38141" data-name="Group 38141">
          <g id="Group_38140" data-name="Group 38140">
            <path id="Path_5260" data-name="Path 5260" d="M-861.127,1088.108a.569.569,0,0,1,.006.383.584.584,0,0,1-.187.279.6.6,0,0,1-.317.126.96.96,0,0,1-.408-.051l-.94-.308.714-2.18.9.294a.985.985,0,0,1,.359.2.576.576,0,0,1,.178.28.55.55,0,0,1-.013.317.52.52,0,0,1-.206.285.567.567,0,0,1-.329.093A.518.518,0,0,1-861.127,1088.108Zm-.579.367a.277.277,0,0,0,.159-.183.289.289,0,0,0-.021-.251.4.4,0,0,0-.227-.163l-.43-.141-.192.587.44.144A.391.391,0,0,0-861.705,1088.475Zm-.41-1.075.4.131a.385.385,0,0,0,.263.008.261.261,0,0,0,.15-.174.266.266,0,0,0-.018-.231.379.379,0,0,0-.217-.151l-.4-.131Z" transform="translate(862.972 -1086.308)"/>
            <path id="Path_5261" data-name="Path 5261" d="M-853.832,1090.827l-.382-.953-.215-.029-.12.885-.456-.062.308-2.273.853.115a1.006,1.006,0,0,1,.437.153.653.653,0,0,1,.245.288.691.691,0,0,1,.045.366.683.683,0,0,1-.185.388.677.677,0,0,1-.421.2l.419.995Zm-.55-1.324.381.052a.386.386,0,0,0,.289-.052.336.336,0,0,0,.125-.237.32.32,0,0,0-.058-.255.394.394,0,0,0-.265-.123l-.381-.052Z" transform="translate(857.352 -1087.745)"/>
            <path id="Path_5262" data-name="Path 5262" d="M-845.644,1090.823l-.912.055-.125.445-.482.029.687-2.342.534-.032.961,2.244-.486.029Zm-.146-.359-.389-.938-.274.977Z" transform="translate(851.821 -1088.156)"/>
            <path id="Path_5263" data-name="Path 5263" d="M-838.375,1090.06a.714.714,0,0,1-.353-.154.62.62,0,0,1-.2-.325l.477-.122a.319.319,0,0,0,.153.192.353.353,0,0,0,.261.018.382.382,0,0,0,.226-.137.252.252,0,0,0,.039-.219.234.234,0,0,0-.1-.147.442.442,0,0,0-.177-.062,2.62,2.62,0,0,0-.271-.017,2.873,2.873,0,0,1-.384-.036.637.637,0,0,1-.281-.129.548.548,0,0,1-.182-.311.616.616,0,0,1,.011-.369.65.65,0,0,1,.219-.3,1.042,1.042,0,0,1,.388-.182.915.915,0,0,1,.6.025.639.639,0,0,1,.356.406l-.49.125a.262.262,0,0,0-.146-.164.378.378,0,0,0-.26-.014.321.321,0,0,0-.191.12.25.25,0,0,0-.029.214.209.209,0,0,0,.1.133.465.465,0,0,0,.171.058c.065.009.154.017.268.021a2.691,2.691,0,0,1,.386.037.66.66,0,0,1,.285.131.55.55,0,0,1,.184.309.647.647,0,0,1-.008.354.672.672,0,0,1-.208.313.96.96,0,0,1-.4.2A1.079,1.079,0,0,1-838.375,1090.06Z" transform="translate(846.199 -1087.274)"/>
            <path id="Path_5264" data-name="Path 5264" d="M-832.7,1086.188l.872,2.122-.425.175-.872-2.121Z" transform="translate(841.92 -1086.188)"/>
          </g>
        </g>
      </g>
    </g>
  </g>
  <g id="Group_38147" data-name="Group 38147" transform="translate(5.272 5.225)">
    <g id="Group_38146" data-name="Group 38146" transform="translate(0)" clip-path="url(#clip-path)">
      <g id="Group_38145" data-name="Group 38145" transform="translate(4.013 5.553)">
        <path id="Path_5265" data-name="Path 5265" d="M-867.316,1039.637l4.105,1.247.205-.675-4.4-1.336-1.955,1.128.353.611Z" transform="translate(870.203 -1036.383)"/>
        <path id="Path_5266" data-name="Path 5266" d="M-867.316,1043.864l4.105,1.247.205-.675-4.4-1.335-1.955,1.128.353.611Z" transform="translate(870.203 -1039.364)"/>
        <path id="Path_5267" data-name="Path 5267" d="M-867.316,1048.09l4.105,1.247.205-.675-4.4-1.336-1.955,1.128.353.611Z" transform="translate(870.203 -1042.345)"/>
        <path id="Path_5268" data-name="Path 5268" d="M-867.316,1052.316l4.105,1.247.205-.675-4.4-1.335-1.955,1.128.353.611Z" transform="translate(870.203 -1045.326)"/>
        <path id="Path_5269" data-name="Path 5269" d="M-867.316,1056.543l4.105,1.247.205-.675-4.4-1.335-1.955,1.128.353.611Z" transform="translate(870.203 -1048.307)"/>
        <path id="Path_5270" data-name="Path 5270" d="M-867.316,1060.769l4.105,1.247.205-.675-4.4-1.335-1.955,1.128.353.611Z" transform="translate(870.203 -1051.289)"/>
        <path id="Path_5271" data-name="Path 5271" d="M-867.316,1065l4.105,1.247.205-.675-4.4-1.336-1.955,1.128.353.611Z" transform="translate(870.203 -1054.27)"/>
        <path id="Path_5272" data-name="Path 5272" d="M-867.316,1069.221l4.105,1.247.205-.675-4.4-1.335-1.955,1.128.353.611Z" transform="translate(870.203 -1057.251)"/>
        <path id="Path_5273" data-name="Path 5273" d="M-844.556,1039.637l4.105,1.247.205-.675-4.4-1.336L-846.6,1040l.353.611Z" transform="translate(854.149 -1036.383)"/>
        <path id="Path_5274" data-name="Path 5274" d="M-844.556,1035.411l4.105,1.247.205-.675-4.4-1.335-1.955,1.128.353.611Z" transform="translate(854.149 -1033.402)"/>
        <path id="Path_5275" data-name="Path 5275" d="M-844.556,1031.185l4.105,1.247.205-.675-4.4-1.336-1.955,1.128.353.611Z" transform="translate(854.149 -1030.421)"/>
        <path id="Path_5276" data-name="Path 5276" d="M-844.556,1043.864l4.105,1.247.205-.675-4.4-1.335-1.955,1.128.353.611Z" transform="translate(854.149 -1039.364)"/>
        <path id="Path_5277" data-name="Path 5277" d="M-844.556,1048.09l4.105,1.247.205-.675-4.4-1.336-1.955,1.128.353.611Z" transform="translate(854.149 -1042.345)"/>
        <path id="Path_5278" data-name="Path 5278" d="M-844.556,1052.316l4.105,1.247.205-.675-4.4-1.335-1.955,1.128.353.611Z" transform="translate(854.149 -1045.326)"/>
        <path id="Path_5279" data-name="Path 5279" d="M-844.556,1056.543l4.105,1.247.205-.675-4.4-1.335-1.955,1.128.353.611Z" transform="translate(854.149 -1048.307)"/>
        <path id="Path_5280" data-name="Path 5280" d="M-844.556,1060.769l4.105,1.247.205-.675-4.4-1.335-1.955,1.128.353.611Z" transform="translate(854.149 -1051.289)"/>
        <path id="Path_5281" data-name="Path 5281" d="M-844.556,1065l4.105,1.247.205-.675-4.4-1.336-1.955,1.128.353.611Z" transform="translate(854.149 -1054.27)"/>
        <path id="Path_5282" data-name="Path 5282" d="M-844.556,1069.221l4.105,1.247.205-.675-4.4-1.335-1.955,1.128.353.611Z" transform="translate(854.149 -1057.251)"/>
        <path id="Path_5283" data-name="Path 5283" d="M-858.52,1075.844v-1.175l.2-.65-4.4-1.335-1.955,1.128.2.342v1.691h-.748v-1.175l.2-.65-4.4-1.335-1.955,1.128.2.342v1.691h-1.042v.675H-856.7v-.675Zm-9.892,0v-1.435l2.155.517v.917Zm6.706,0v-1.435l2.155.517v.917Z" transform="translate(872.226 -1060.231)"/>
      </g>
    </g>
  </g>
  <g id="Group_38148" data-name="Group 38148" transform="translate(6.386 6.371)">
    <ellipse id="Ellipse_183" data-name="Ellipse 183" cx="9.073" cy="9.073" rx="9.073" ry="9.073" transform="translate(0 17.825) rotate(-79.189)" fill="none" stroke="#fff" stroke-miterlimit="10" stroke-width="0.5" stroke-dasharray="2"/>
  </g>
</svg>
