<svg xmlns="http://www.w3.org/2000/svg" width="52" height="51" viewBox="0 0 52 51">
    <g>
        <g>
            <g>
                <g transform="translate(.14 13.64) translate(-.195 -13.508)">
                    <rect width="52" height="51" fill="rgba(212,0,0,0.9)" rx="25.5" transform="translate(.055 -.132)"/>
                    <path fill="none" stroke="#fff" stroke-linecap="round" stroke-linejoin="round" stroke-width="1.5px" d="M22.684 16.984V20.4a2.279 2.279 0 0 1-2.484 2.276 22.6 22.6 0 0 1-9.843-3.495 22.22 22.22 0 0 1-6.844-6.83 22.5 22.5 0 0 1-3.5-9.869A2.278 2.278 0 0 1 2.279 0H5.7a2.28 2.28 0 0 1 2.282 1.958 14.592 14.592 0 0 0 .8 3.2 2.273 2.273 0 0 1-.513 2.4L6.819 9a18.231 18.231 0 0 0 6.844 6.83l1.449-1.446a2.284 2.284 0 0 1 2.407-.512 14.669 14.669 0 0 0 3.205.8 2.278 2.278 0 0 1 1.962 2.311z" transform="rotate(135 15.54 21.98)"/>
                </g>
            </g>
        </g>
    </g>
</svg>
