<svg xmlns="http://www.w3.org/2000/svg" width="116" height="116" viewBox="0 0 116 116">
    <defs>
        <style>
            .cls-2{fill:#d7d0d6}.cls-4{fill:#e5e1e5}
        </style>
    </defs>
    <g id="Group_37799" transform="translate(-891 -266)">
        <circle id="Ellipse_92" cx="58" cy="58" r="58" fill="purple" opacity="0.05" transform="translate(891 266)"/>
        <g id="booking_1_" transform="translate(913.783 292.473)">
            <path id="Path_5070" d="M166.753 396.882v4.913l2.829 3.793h-27.675l2.829-3.793v-9.212h21.9z" class="cls-2" transform="translate(-120.465 -343.472)"/>
            <path id="Path_5071" fill="#c9bfc8" d="M166.753 396.882l-.116-4.3h-21.9v9.212l-2.829 3.793h9.169l1.849-2.479a1.463 1.463 0 0 0 .29-.875v-.333a1.888 1.888 0 0 1 1.888-1.888h11.65v-3.128z" transform="translate(-120.465 -343.472)"/>
            <path id="Path_5072" d="M61 302.582H13.736l-9.518 10.029v1.949a3.581 3.581 0 0 0 3.58 3.58h54.838a3.581 3.581 0 0 0 3.58-3.58v-1.949z" class="cls-4" transform="translate(0 -264.73)"/>
            <g id="Group_37798" transform="translate(4.218)">
                <g id="XMLID_520_" transform="translate(0 10.183)">
                    <g id="Group_37795">
                        <path id="Path_5073" fill="#008b8b" d="M66.217 84.981V119.1h-62V84.981A3.58 3.58 0 0 1 7.8 81.4h54.837a3.58 3.58 0 0 1 3.58 3.579z" transform="translate(-4.219 -81.402)"/>
                    </g>
                </g>
                <path id="Path_5074" d="M19.99 314.561v-11.978h-6.254l-9.518 10.029v1.949a3.581 3.581 0 0 0 3.58 3.58H23.57a3.581 3.581 0 0 1-3.58-3.58z" class="cls-2" transform="translate(-4.218 -264.731)"/>
                <g id="Group_37796" transform="translate(14.683 61.177)">
                    <path id="Path_5075" d="M153.545 490.914h-31.018a.938.938 0 1 1 0-1.876h31.018a.938.938 0 0 1 0 1.876z" class="cls-4" transform="translate(-121.589 -489.038)"/>
                </g>
                <path id="Path_5076" fill="#0bb3b3" d="M23.571 81.4H7.8a3.58 3.58 0 0 0-3.58 3.58v34.12h15.771V84.981a3.559 3.559 0 0 1 .688-2.108.75.75 0 0 1 1.351.331 13.31 13.31 0 0 0 26.5-1.8z" transform="translate(-4.219 -71.219)"/>
                <circle id="Ellipse_111" cx="10.183" cy="10.183" r="10.183" fill="purple" transform="translate(20.816)"/>
                <path id="Path_5077" fill="#c600c6" d="M178.418 10.183A10.187 10.187 0 0 1 184.7.774a10.183 10.183 0 1 0 0 18.817 10.187 10.187 0 0 1-6.286-9.409z" transform="translate(-149.804)"/>
                <g id="Group_37797" transform="translate(26.287 6.761)">
                    <path id="Path_5078" fill="#f9f7f8" d="M217.818 62.366a.936.936 0 0 1-.631-.244l-2.531-2.3a.938.938 0 0 1 1.262-1.389l1.88 1.709 6.039-5.831a.938.938 0 0 1 1.3 1.35l-6.668 6.439a.936.936 0 0 1-.651.266z" transform="translate(-214.349 -54.047)"/>
                </g>
                <path id="Path_5079" fill="#efedef" d="M216.837 88.23l-.919-.836a.938.938 0 1 0-1.262 1.389l2.531 2.3a.923.923 0 0 0 .742.237 10.108 10.108 0 0 1-1.092-3.09z" transform="translate(-188.062 -76.249)"/>
                <path id="Path_5080" fill="#dff6fd" d="M137.694 217.666a1.505 1.505 0 0 0 1.505-1.505v-5.544a1.505 1.505 0 0 0-1.505-1.505h-34.635a1.505 1.505 0 0 0-1.505 1.505v5.544a1.505 1.505 0 0 0 1.505 1.505z" transform="translate(-89.378 -182.952)"/>
                <path id="Path_5081" fill="#c8effe" d="M105.15 209.111h-2.091a1.505 1.505 0 0 0-1.505 1.505v5.544a1.505 1.505 0 0 0 1.505 1.505h2.091z" transform="translate(-89.378 -182.952)"/>
                <path id="Path_5082" fill="#f47c7c" d="M272.164 266.635l-7.072-2.253a.577.577 0 0 0-.751.516l-.433 7.41a.577.577 0 0 0 .9.509l2.173-1.493 2.251 3.276a.545.545 0 0 0 .758.141l2.259-1.552a.545.545 0 0 0 .141-.758l-2.251-3.276 2.173-1.493a.576.576 0 0 0-.151-1.025z" transform="translate(-231.421 -231.285)"/>
            </g>
        </g>
    </g>
</svg>
