<svg xmlns="http://www.w3.org/2000/svg" width="13.164" height="13.164" viewBox="0 0 13.164 13.164">
    <path fill="#008b8b" d="M5.554 0H7.61a.616.616 0 0 1 .617.617v4.32h2.255a.513.513 0 0 1 .363.877L6.934 9.726a.5.5 0 0 1-.7 0L2.317 5.813a.513.513 0 0 1 .363-.877h2.257V.617A.616.616 0 0 1 5.554 0zm7.61 9.667v2.88a.616.616 0 0 1-.617.617H.617A.616.616 0 0 1 0 12.547v-2.88a.616.616 0 0 1 .617-.617h3.772l1.26 1.26a1.317 1.317 0 0 0 1.867 0l1.26-1.26h3.772a.616.616 0 0 1 .616.617zM9.976 11.93a.514.514 0 1 0-.514.514.516.516 0 0 0 .514-.514zm1.646 0a.514.514 0 1 0-.514.514.516.516 0 0 0 .513-.514z"/>
</svg>
