<svg xmlns="http://www.w3.org/2000/svg" width="23.681" height="21.045" viewBox="0 0 23.681 21.045">
    <path fill="#008b8b" d="M16.552 3.423l3.708 3.709a.4.4 0 0 1 0 .567l-8.979 8.979-3.815.422a.8.8 0 0 1-.884-.884l.424-3.816 8.979-8.979a.4.4 0 0 1 .567.002zm6.66-.941L21.206.476a1.608 1.608 0 0 0-2.269 0l-1.456 1.455a.4.4 0 0 0 0 .567l3.708 3.708a.4.4 0 0 0 .567 0l1.455-1.455a1.608 1.608 0 0 0 0-2.269zm-7.425 11.754v4.185H2.631V5.265h9.448a.505.505 0 0 0 .349-.144l1.644-1.644a.493.493 0 0 0-.349-.843H1.973A1.974 1.974 0 0 0 0 4.608v14.471a1.974 1.974 0 0 0 1.973 1.973h14.472a1.974 1.974 0 0 0 1.973-1.973v-6.487a.494.494 0 0 0-.843-.349l-1.644 1.644a.505.505 0 0 0-.144.349z" transform="translate(0 -.007)"/>
</svg>
