<svg xmlns="http://www.w3.org/2000/svg" width="19.391" height="17.233" viewBox="0 0 19.391 17.233">
    <path fill="purple" d="M13.553 2.8l3.037 3.041a.329.329 0 0 1 0 .465l-7.353 7.352L6.113 14a.655.655 0 0 1-.724-.724l.347-3.124L13.089 2.8a.329.329 0 0 1 .464 0zm5.454-.771L17.364.391a1.317 1.317 0 0 0-1.858 0l-1.192 1.192a.329.329 0 0 0 0 .465l3.036 3.036a.329.329 0 0 0 .465 0l1.192-1.192a1.317 1.317 0 0 0 0-1.858zm-6.08 9.625v3.427H2.154V4.313H9.89a.414.414 0 0 0 .286-.118l1.347-1.347a.4.4 0 0 0-.286-.69H1.616A1.616 1.616 0 0 0 0 3.774v11.85a1.616 1.616 0 0 0 1.616 1.616h11.85a1.616 1.616 0 0 0 1.616-1.616v-5.312a.4.4 0 0 0-.69-.286l-1.347 1.347a.414.414 0 0 0-.118.285z" transform="translate(0 -.007)"/>
</svg>
