<svg xmlns="http://www.w3.org/2000/svg" width="199" height="36" viewBox="0 0 199 36">
    <g fill="#008b8b">
        <path d="M15.75 9.563V0H1.688A1.683 1.683 0 0 0 0 1.688v32.625A1.683 1.683 0 0 0 1.688 36h23.625A1.683 1.683 0 0 0 27 34.313V11.25h-9.562a1.692 1.692 0 0 1-1.688-1.687zm4.226 7.488l-4.226 6.574 4.226 6.575a.845.845 0 0 1-.71 1.3h-2.454a.847.847 0 0 1-.745-.443c-1.378-2.545-2.566-4.83-2.566-4.83-.45 1.041-.7 1.406-2.573 4.837a.836.836 0 0 1-.738.443H7.734a.845.845 0 0 1-.71-1.3l4.24-6.574-4.24-6.574a.843.843 0 0 1 .71-1.3h2.447a.847.847 0 0 1 .745.443c1.835 3.431 1.406 2.362 2.573 4.816 0 0 .429-.823 2.573-4.816a.847.847 0 0 1 .745-.443h2.447a.839.839 0 0 1 .712 1.292zM27 8.571V9h-9V0h.429a1.686 1.686 0 0 1 1.2.492l6.884 6.891A1.682 1.682 0 0 1 27 8.571z" transform="translate(-1134 -288) translate(1134 288)"/>
        <text font-family="Montserrat-SemiBold, Montserrat" font-size="20px" font-weight="600" text-decoration="underline" transform="translate(-1134 -288) translate(1333 315)">
            <tspan x="-154.5" y="0">Export to Excel</tspan>
        </text>
    </g>
</svg>
