<svg xmlns="http://www.w3.org/2000/svg" width="23.549" height="15.699" viewBox="0 0 23.549 15.699">
    <path fill="purple" d="M23.407 11.753A13.113 13.113 0 0 0 11.774 4.5 13.115 13.115 0 0 0 .142 11.753a1.323 1.323 0 0 0 0 1.193A13.113 13.113 0 0 0 11.774 20.2a13.115 13.115 0 0 0 11.632-7.253 1.323 1.323 0 0 0 .001-1.194zm-11.633 6.484a5.887 5.887 0 1 1 5.887-5.887 5.887 5.887 0 0 1-5.887 5.887zm0-9.812a3.9 3.9 0 0 0-1.035.155A1.956 1.956 0 0 1 8 11.315a3.916 3.916 0 1 0 3.77-2.89z" transform="translate(0 -4.5)"/>
</svg>
