<svg xmlns="http://www.w3.org/2000/svg" width="605" height="435" viewBox="0 0 605 435">
    <defs>
        <clipPath id="clip-path">
            <path id="Rectangle_26" fill="#e8ffff" d="M0 0H605V435H0z" transform="translate(278.558 1809.283)"/>
        </clipPath>
        <style>
            .cls-3{fill:#f2f2f2}.cls-4{fill:#fff}.cls-5{fill:#2f2e41}.cls-6{fill:#a0616a}.cls-7{fill:#6c63ff}.cls-8{fill:#3f3d56}.cls-9{fill:#ff6584}.cls-10{fill:#ffb8b8}
        </style>
    </defs>
    <g id="Mask_Group_3" clip-path="url(#clip-path)" transform="translate(-278.558 -1809.283)">
        <g id="Features_1" transform="translate(279 1861.402)">
            <path id="Path_3745" d="M243.244 519.71a98.338 98.338 0 0 1-73.557-96.682c.085-5.488.662-11.091 2.968-16.071s6.592-9.287 11.952-10.467c5.85-1.288 12.022 1.345 16.382 5.452s7.218 9.527 9.848 14.909c15.84 32.414 27.875 67.195 32.381 102.99z" class="cls-3" transform="translate(-133.252 -191.5)"/>
            <path id="Path_3746" d="M183.509 397.638l11.1 25.224 11.1 25.224c3.516 7.988 7.025 15.98 10.659 23.916 3.6 7.866 7.328 15.677 11.3 23.363s8.187 15.224 12.766 22.552q.855 1.369 1.727 2.727c.4.627 1.408.045 1-.586-4.666-7.274-8.966-14.777-13-22.419s-7.81-15.438-11.444-23.287c-3.653-7.891-7.166-15.846-10.67-23.8q-5.532-12.566-11.061-25.132l-11.1-25.224-1.382-3.139c-.3-.683-1.3-.092-1 .586z" class="cls-4" transform="translate(-134.807 -191.566)"/>
            <path id="Path_3747" d="M238.847 529.236a57.545 57.545 0 0 1-64.29-30.338 23.123 23.123 0 0 1-2.8-9.145 10.643 10.643 0 0 1 3.379-8.661c2.689-2.248 6.6-2.547 9.977-1.592s6.319 3 9.137 5.082c16.974 12.553 32.612 27.361 44.615 44.729z" class="cls-3" transform="translate(-133.485 -200.851)"/>
            <path id="Path_3748" d="M174.33 482.718l12.573 10.1 12.573 10.1c3.982 3.2 7.961 6.4 11.99 9.539 3.994 3.111 8.037 6.161 12.175 9.078s8.36 5.694 12.716 8.263q.814.48 1.633.95c.378.217.743-.357.362-.575-4.386-2.517-8.644-5.252-12.8-8.131s-8.223-5.906-12.228-9c-4.027-3.111-8-6.292-11.966-9.479L188.83 493.5l-12.574-10.1-1.565-1.257c-.34-.273-.7.3-.362.575z" class="cls-4" transform="translate(-133.762 -201.199)"/>
            <path id="Path_3749" d="M691.775 512.794a137.136 137.136 0 0 0 102.581-134.827c-.118-7.653-.922-15.466-4.139-22.411s-9.193-12.951-16.667-14.6c-8.158-1.8-16.766 1.875-22.845 7.6s-10.065 13.286-13.733 20.791c-22.09 45.2-38.873 93.706-45.156 143.624z" class="cls-3" transform="translate(-192.196 -185.216)"/>
            <path id="Path_3750" d="M777.518 342.56l-15.482 35.176-15.479 35.176c-4.9 11.14-9.8 22.285-14.865 33.352-5.023 10.969-10.219 21.863-15.761 32.58-5.535 10.7-11.417 21.23-17.8 31.45q-1.193 1.909-2.409 3.8c-.561.875-1.964.063-1.4-.818 6.508-10.144 12.5-20.607 18.128-31.265s10.892-21.528 15.96-32.474c5.095-11 9.993-22.1 14.879-33.2l15.424-35.037 15.487-35.18 1.927-4.377c.419-.952 1.815-.129 1.4.818z" class="cls-4" transform="translate(-192.469 -185.308)"/>
            <path id="Path_3751" d="M699.052 526.079a80.248 80.248 0 0 0 89.655-42.308c2-4.005 3.7-8.279 3.9-12.753s-1.276-9.206-4.713-12.078c-3.75-3.135-9.211-3.552-13.913-2.22s-8.813 4.18-12.743 7.086c-23.672 17.505-45.479 38.156-62.217 62.376z" class="cls-3" transform="translate(-193.014 -198.256)"/>
            <path id="Path_3752" d="M789.522 461.208l-17.534 14.083-17.534 14.083c-5.553 4.46-11.1 8.925-16.721 13.3-5.569 4.339-11.208 8.592-16.979 12.66s-11.659 7.94-17.733 11.522q-1.135.669-2.277 1.324c-.527.3-1.036-.5-.505-.8 6.117-3.51 12.055-7.323 17.852-11.338s11.467-8.237 17.053-12.552c5.616-4.338 11.154-8.775 16.687-13.218l17.47-14.032 17.534-14.083 2.182-1.753c.474-.381.977.423.505.8z" class="cls-4" transform="translate(-193.126 -198.742)"/>
            <path id="Path_3753" d="M290.847 279.931v.007l-5.784 4.834-39.777 8.836a10.055 10.055 0 1 0 7.539 18.644l25.337-4.266a31.082 31.082 0 0 0 4.148-.985c.534-.16 1.061-.34 1.582-.527a161.829 161.829 0 0 1 9.446-28.618z" class="cls-5" transform="translate(-141.078 -178.143)"/>
            <path id="Path_3754" d="M665.5 302.6l-5.514-.035-2.948-.014-16.888-29.529a8.264 8.264 0 0 0 .367-.95c1.88-5.8-3.079-9.786-7.8-9.7a6.823 6.823 0 0 0-1.6.187 162.451 162.451 0 0 1 18.429 54.211 9.424 9.424 0 0 0 1.464.291 31.257 31.257 0 0 0 7.726-.264c3.44-.437 6.693-1.054 8.427-.922z" class="cls-6" transform="translate(-185.348 -176.395)"/>
            <path id="Path_3755" d="M687.131 307.988l-20.266-2.816a3.125 3.125 0 0 0-3.426 2.22 3.17 3.17 0 0 0-.1.444l-1.623 11.673a3.14 3.14 0 0 0 2.656 3.523l20.266 2.816a9.016 9.016 0 1 0 2.49-17.86z" class="cls-7" transform="translate(-188.799 -181.224)"/>
            <path id="Path_3756" d="M611.751 306.117a163.176 163.176 0 0 0-18.3-54.689 165.272 165.272 0 0 0-297.6 15.814v.007a162.728 162.728 0 0 0-8.538 27.064 165.077 165.077 0 1 0 324.433 11.8zM448.446 494.135c-90.257 0-163.687-73.43-163.687-163.687a162.71 162.71 0 0 1 13.587-65.281c25.261-57.866 83.037-98.406 150.1-98.406a163.563 163.563 0 0 1 163.687 163.687c0 90.252-73.433 163.687-163.687 163.687z" class="cls-8" transform="translate(-146.088 -165.453)"/>
            <path id="Path_3757" d="M404.643 323.855A34.674 34.674 0 1 1 429 313.862a34.672 34.672 0 0 1-24.361 9.994zm0-67.972a33.295 33.295 0 1 0 33.292 33.293 33.3 33.3 0 0 0-33.292-33.292z" class="cls-8" transform="translate(-155.865 -175.507)"/>
            <path id="Path_3758" d="M525.049 323.854a34.679 34.679 0 1 1 34.68-34.679 34.679 34.679 0 0 1-34.68 34.679zm0-67.972a33.292 33.292 0 1 0 33.292 33.292 33.292 33.292 0 0 0-33.292-33.291z" class="cls-8" transform="translate(-169.457 -175.506)"/>
            <path id="Path_3759" d="M429.891 318.928a33.994 33.994 0 0 1-47.746 0 26.366 26.366 0 0 1 47.746 0z" class="cls-8" transform="translate(-157.239 -181.067)"/>
            <path id="Path_3760" d="M550.3 318.928a33.994 33.994 0 0 1-47.747 0 26.366 26.366 0 0 1 47.747 0z" class="cls-8" transform="translate(-170.833 -181.067)"/>
            <path id="Path_3761" d="M444.24 356.818c0-3.831 12.421-6.936 27.744-6.936s27.744 3.105 27.744 6.936-12.421 18.033-27.744 18.033-27.744-14.202-27.744-18.033z" class="cls-8" transform="translate(-164.25 -186.275)"/>
            <circle id="Ellipse_71" cx="11.791" cy="11.791" r="11.791" class="cls-9" transform="translate(203.348 145.921)"/>
            <circle id="Ellipse_72" cx="11.791" cy="11.791" r="11.791" class="cls-9" transform="translate(377.786 146.268)"/>
            <path id="Path_3762" d="M154.7 358.111h8.5l4.045-32.8H154.7z" class="cls-10" transform="translate(-17.465 -36.807)"/>
            <path id="Path_3763" d="M0 0h26.724v10.326h-16.4A10.325 10.325 0 0 1 0 0z" class="cls-5" transform="rotate(179.997 81.062 165.296)"/>
            <path id="Path_3764" d="M107 358.111h8.5l4.045-32.8H107z" class="cls-10" transform="translate(-12.081 -36.807)"/>
            <path id="Path_3765" d="M0 0h26.724v10.326h-16.4A10.325 10.325 0 0 1 0 0z" class="cls-5" transform="rotate(179.997 59.908 165.295)"/>
            <path id="Path_3766" d="M280.032 376.959l7.475 59.223q1.541 12.213 2.157 24.516l2.014 40.275a2.774 2.774 0 0 1-2.771 2.913h-11.345a2.774 2.774 0 0 1-2.743-2.358l-10.2-67.218a1.387 1.387 0 0 0-2.735-.046L249.59 500.1a2.774 2.774 0 0 1-2.515 2.208l-10.441.663a2.774 2.774 0 0 1-2.975-2.854l3.372-107.9z" class="cls-5" transform="translate(-140.475 -189.332)"/>
            <circle id="Ellipse_73" cx="17.035" cy="17.035" r="17.035" class="cls-10" transform="translate(89.404 69.202)"/>
            <path id="Path_3767" d="M232.348 383.578c4.162 9.71 22.195 16.646 26.356 2.774 3.218-10.723 15.966-15.231 21.591-16.722a2.785 2.785 0 0 0 1.984-3.371l-15.724-61.764a21.7 21.7 0 0 0-42.4 1.637 95.14 95.14 0 0 0-1.1 10.931c-1.305 27.251 6.553 60.12 9.293 66.515z" class="cls-7" transform="translate(-139.262 -179.305)"/>
            <path id="Path_3768" d="M335.759 332.842a6.975 6.975 0 0 0-10.31 2.844l-24.676-2.326 6.05 11.37 22.505.466a7.012 7.012 0 0 0 6.43-12.354z" class="cls-10" transform="translate(-148.052 -184.212)"/>
            <path id="Path_3769" d="M316.165 341.719a3.125 3.125 0 0 1-2.325 1.036l-32.21-.736a32.164 32.164 0 0 1-21.187-7.985l-19.313-16.939a10.055 10.055 0 1 1 9.68-17.626l31.99 25.24 31.145 6a3.131 3.131 0 0 1 2.366 2.7l.639 5.89a3.125 3.125 0 0 1-.361 1.827 3.092 3.092 0 0 1-.424.593z" class="cls-5" transform="translate(-140.73 -180.443)"/>
            <path id="Path_3770" d="M232.943 273.615a2.779 2.779 0 0 0 4.094-1.643l.01-.039a13.285 13.285 0 0 0-.036-3.969 4.973 4.973 0 0 1 .944-3.759c1.684-1.818 4.68-.854 7.115-1.314a6.009 6.009 0 0 0 4.675-6.418c-.035-.276-.089-.552-.15-.828a4.628 4.628 0 0 1 4.8-5.605c2.461.141 5.117.886 7.153-.936a5.277 5.277 0 0 0 1.267-5.688c-1.163-3.356-4.448-5.113-7.7-6.078a28.174 28.174 0 0 0-23.881 3.918 12.645 12.645 0 0 0-4.847 5.622c-.875 2.355-.453 5.327 1.521 6.882a12.715 12.715 0 0 0-2.945 12.35c.98 3.142 5.637 6.154 7.98 7.505z" class="cls-5" transform="translate(-139.435 -173.444)"/>
            <path id="Path_3771" d="M517.661 357.963h-8.5l-4.046-32.8h12.551z" class="cls-6" transform="translate(-57.027 -36.79)"/>
            <path id="Path_3772" d="M501.513 360.962h16.4v10.325h-26.726a10.325 10.325 0 0 1 10.326-10.325z" class="cls-5" transform="translate(-55.454 -40.832)"/>
            <path id="Path_3773" d="M585.683 357.963h-8.5l-4.046-32.8h12.55z" class="cls-6" transform="translate(-64.706 -36.79)"/>
            <path id="Path_3774" d="M569.534 360.962h16.4v10.325h-26.725a10.325 10.325 0 0 1 10.326-10.325z" class="cls-5" transform="translate(-63.134 -40.832)"/>
            <path id="Path_3775" d="M646.063 486.659c-.092 0-.185 0-.278-.012l-12.035-.963a3.468 3.468 0 0 1-3.147-4.01l18.247-112.861 1.222-15.919a3.448 3.448 0 0 1 2.716-3.122l18.353-4.014a3.446 3.446 0 0 1 3.6 1.429l4.475 6.541a76.574 76.574 0 0 0 5.719 7.289c3.175 3.616 8.574 11.645 9.058 24.786a87.806 87.806 0 0 0 1.341 12.869l14.776 79.6a3.467 3.467 0 0 1-3.079 4l-11.409.864a3.454 3.454 0 0 1-3.677-2.552l-20.236-75.255a.693.693 0 0 0-1.34 0l-20.96 78.758a3.472 3.472 0 0 1-3.35 2.575z" class="cls-5" transform="translate(-185.285 -185.8)"/>
            <circle id="Ellipse_74" cx="17.035" cy="17.035" r="17.035" class="cls-6" transform="translate(475.747 74.741)"/>
            <path id="Path_3776" d="M651.5 349.76l-.353-24.327c-1.3-15.559 5.593-23.728 11.6-27.838a13.815 13.815 0 0 1 10.684-2.045l13.407 2.9a14.13 14.13 0 0 1 9.055 6.448 13.192 13.192 0 0 1 1.507 10.409 14.285 14.285 0 0 1-5.826 7.978c-11.52 8.132-12.331 21.792-12.338 21.929l-.014.282z" class="cls-7" transform="translate(-187.591 -180.105)"/>
            <path id="Path_3777" d="M607.9 338.41a7.654 7.654 0 0 1-11.442.331c-6.718-7.046 4.264-17.626 11.008-10.565a7.413 7.413 0 0 1 .661.777l34.005-.845 4.059-7.424 12.474 4.844c-2.395 3.714-5.145 18.29-11.408 17.58-.823.022-38.519-4.638-39.357-4.698z" class="cls-6" transform="translate(-181.198 -182.979)"/>
            <path id="Path_3778" d="M659.529 330.323l-9.506-6.976a3.125 3.125 0 0 1-.67-4.363l12.106-16.5A9.017 9.017 0 0 1 676 313.158l-12.106 16.5a3.125 3.125 0 0 1-4.365.665z" class="cls-7" transform="translate(-187.339 -180.509)"/>
            <path id="Path_3779" d="M677.39 261.546a27.811 27.811 0 0 1-7.433 1.28 9.375 9.375 0 0 1-6.847-2.691c-2.419-2.642-2.388-6.947-.515-10a14.035 14.035 0 0 1 8.705-5.835 41.559 41.559 0 0 1 10.688-.782c4.254-3.1 10.457-2.63 14.823.313s7.033 7.932 8.165 13.074.885 10.48.456 15.727c-.235 2.875.006 6.609 2.753 7.49 1.734.556 3.607-.464 4.849-1.8s2.11-2.984 3.409-4.261c2.767-2.72 7.208-3.271 10.864-1.972a17.514 17.514 0 0 1 8.628 7.483 26.036 26.036 0 0 1-29.566 38.734c-9.38-2.816-16.462-10.733-21.019-19.4a64.078 64.078 0 0 1-6.949-36.359z" class="cls-5" transform="translate(-188.748 -174.028)"/>
            <path id="Path_3780" d="M732.038 538.134H129.31a.694.694 0 0 1 0-1.387h602.728a.694.694 0 0 1 0 1.387z" class="cls-8" transform="translate(-128.616 -207.372)"/>
        </g>
    </g>
</svg>
