<svg xmlns="http://www.w3.org/2000/svg" width="22.352" height="21.351" viewBox="0 0 22.352 21.351">
    <path fill="#ed8a19" d="M21.207 7.152l-6.1-.889-2.731-5.52a1.339 1.339 0 0 0-2.4 0l-2.727 5.52-6.1.888A1.334 1.334 0 0 0 .4 9.427l4.416 4.3-1.04 6.063a1.338 1.338 0 0 0 1.318 1.562 1.318 1.318 0 0 0 .62-.156l5.461-2.864 5.46 2.865a1.334 1.334 0 0 0 1.939-1.4l-1.044-6.073 4.417-4.294a1.334 1.334 0 0 0-.739-2.277zM16.13 12.29l-.756.735.178 1.038.814 4.731-4.259-2.235-.933-.49V2.842L13.3 7.149l.466.944 1.043.152 4.764.693z"/>
</svg>
