<svg xmlns="http://www.w3.org/2000/svg" width="27.088" height="27.088" viewBox="0 0 27.088 27.088">
    <path fill="purple" d="M14.106.563A13.544 13.544 0 1 0 27.65 14.106 13.546 13.546 0 0 0 14.106.563zm0 6.007a2.294 2.294 0 1 1-2.294 2.294 2.294 2.294 0 0 1 2.294-2.294zm3.058 13.871a.655.655 0 0 1-.655.655H11.7a.655.655 0 0 1-.655-.655v-1.31a.655.655 0 0 1 .655-.655h.655v-3.5H11.7a.655.655 0 0 1-.655-.655v-1.307a.655.655 0 0 1 .655-.655h3.5a.655.655 0 0 1 .655.655v5.461h.655a.655.655 0 0 1 .655.655z" transform="translate(-.563 -.563)"/>
</svg>
