<svg xmlns="http://www.w3.org/2000/svg" width="57" height="58" viewBox="0 0 57 58">
    <g>
        <g fill="#fff">
            <path d="M47.8 57.75H9.2C4.266 57.75.25 54.722.25 51V7C.25 3.278 4.265.25 9.2.25h38.6c4.935 0 8.95 3.028 8.95 6.75v44c0 3.722-4.015 6.75-8.95 6.75z" transform="translate(-1140 -330) translate(1140 330)"/>
            <path fill="#707070" d="M9.2.5C4.404.5.5 3.416.5 7v44c0 3.584 3.903 6.5 8.7 6.5h38.6c4.797 0 8.7-2.916 8.7-6.5V7c0-3.584-3.903-6.5-8.7-6.5H9.2m0-.5h38.6C52.88 0 57 3.134 57 7v44c0 3.866-4.12 7-9.2 7H9.2C4.12 58 0 54.866 0 51V7c0-3.866 4.12-7 9.2-7z" transform="translate(-1140 -330) translate(1140 330)"/>
        </g>
        <path fill="#aeaeae" d="M14.135 9.541a4.595 4.595 0 1 0 4.595 4.595 4.593 4.593 0 0 0-4.595-4.595zM24.4 12.987a10.331 10.331 0 0 0-9.12-9.12V1.5h-2.3v2.366a10.331 10.331 0 0 0-9.12 9.12H1.5v2.3h2.366a10.331 10.331 0 0 0 9.12 9.12v2.366h2.3V24.4a10.331 10.331 0 0 0 9.12-9.12h2.366v-2.3zm-10.265 9.189a8.041 8.041 0 1 1 8.041-8.041 8.035 8.035 0 0 1-8.041 8.041z" transform="translate(-1140 -330) translate(1154.365 344.865)"/>
    </g>
</svg>
