<svg xmlns="http://www.w3.org/2000/svg" width="52" height="51" viewBox="0 0 52 51">
    <g>
        <g>
            <g>
                <g transform="translate(.14 13.64) translate(-.195 -13.508)">
                    <rect width="52" height="51" fill="#006d6d" rx="25.5" transform="translate(.055 -.132)"/>
                    <path fill="#fff" d="M25.478 18.415l-6.334-4.895a7 7 0 0 0 .794-3.229v-1.93a.643.643 0 0 0-.643-.643h-.643a.643.643 0 0 0-.643.643v1.929a5 5 0 0 1-.431 2.018l-1.067-.825a3.784 3.784 0 0 0 .212-1.193h-1.756L13.3 9h3.419V7.718h-3.43c-.237 0-.429-.144-.429-.322v-.642c0-.178.192-.322.429-.322h3.43V5.146h-3.43c-.237 0-.429-.144-.429-.322v-.643c0-.178.192-.322.429-.322h3.43a3.859 3.859 0 1 0-7.719 0v1.824L1.828.135a.643.643 0 0 0-.9.113L.135 1.264a.643.643 0 0 0 .113.9L23.9 20.446a.643.643 0 0 0 .9-.113l.789-1.016a.644.644 0 0 0-.113-.9zm-9.4.237h-2.25v-1.358a7.063 7.063 0 0 0 1.365-.325L13.167 15.4a5.183 5.183 0 0 1-.818.008 5.206 5.206 0 0 1-4.469-4.091L5.788 9.7v.275a7.3 7.3 0 0 0 6.11 7.3v1.373H9.647a.643.643 0 0 0-.647.647v.643a.643.643 0 0 0 .643.643h6.432a.643.643 0 0 0 .643-.643v-.643a.643.643 0 0 0-.639-.643z" transform="translate(13.191 15.078)"/>
                </g>
            </g>
        </g>
    </g>
</svg>
