<svg xmlns="http://www.w3.org/2000/svg" width="495" height="495" viewBox="0 0 495 495">
    <defs>
        <style>
            .cls-20{fill:none}.cls-15,.cls-9{fill:#008b8b}.cls-3{fill:#bdbdbd}.cls-11,.cls-14,.cls-15,.cls-18,.cls-3,.cls-6{fill-rule:evenodd}.cls-5,.cls-6{fill:#00454d}.cls-12{fill:purple}.cls-11,.cls-17,.cls-18{fill:#fff}.cls-13{fill:#f2f2f2}.cls-14{fill:#f4c496}.cls-16{fill:#1a1a1a}.cls-18{opacity:.23}.cls-19{stroke:none}
        </style>
    </defs>
    <g id="Group_38032" transform="translate(-1144 -233)">
        <g id="Ellipse_147" fill="none" stroke="purple" stroke-dasharray="10 5" stroke-width="3px" opacity="0.49" transform="translate(1144 233)">
            <circle cx="247.5" cy="247.5" r="247.5" class="cls-19"/>
            <circle cx="247.5" cy="247.5" r="246" class="cls-20"/>
        </g>
        <g id="Ellipse_148" fill="#008b8b" stroke="#707070" opacity="0.1" transform="translate(1174 263)">
            <circle cx="217.5" cy="217.5" r="217.5" class="cls-19"/>
            <circle cx="217.5" cy="217.5" r="217" class="cls-20"/>
        </g>
        <g id="Group_37734" transform="translate(1225.002 351.644)">
            <g id="Group_37721" transform="translate(217.698)">
                <g id="Group_37702">
                    <path id="Path_3892" d="M580.535 133.049a3.563 3.563 0 0 0-3.564-3.563h-34.959a3.561 3.561 0 0 0-3.561 3.563v12.907h42.084z" class="cls-3" transform="translate(-538.451 -129.486)"/>
                </g>
                <g id="Group_37703" transform="translate(0 16.47)">
                    <path id="Path_3893" d="M538.451 157.184v34.777a3.473 3.473 0 0 0 3.561 3.382h34.959a3.475 3.475 0 0 0 3.564-3.382v-34.777z" class="cls-3" transform="translate(-538.451 -157.184)"/>
                </g>
                <g id="Group_37704" transform="translate(4.199 4.407)">
                    <path id="Path_3894" fill="#29d2cb" fill-rule="evenodd" d="M579.2 143.892a1.052 1.052 0 0 1-.986 1.111H546.5a1.052 1.052 0 0 1-.986-1.111v-5.884a1.052 1.052 0 0 1 .986-1.111h31.712a1.052 1.052 0 0 1 .986 1.111z" transform="translate(-545.513 -136.897)"/>
                </g>
                <g id="Group_37720" transform="translate(5.112 19.371)">
                    <g id="Group_37705" transform="translate(0 7.824)">
                        <path id="Rectangle_119" d="M1.557 0h3.637a1.56 1.56 0 0 1 1.56 1.56V5.2A1.557 1.557 0 0 1 5.2 6.753H1.557A1.557 1.557 0 0 1 0 5.2V1.557A1.557 1.557 0 0 1 1.557 0z" class="cls-5"/>
                    </g>
                    <g id="Group_37706" transform="translate(8.367 7.824)">
                        <path id="Path_3895" d="M567.874 181.048a.926.926 0 0 1-.925.926h-4.9a.927.927 0 0 1-.929-.926v-4.9a.926.926 0 0 1 .929-.925h4.9a.925.925 0 0 1 .925.925z" class="cls-6" transform="translate(-561.118 -175.221)"/>
                    </g>
                    <g id="Group_37707" transform="translate(16.739 7.824)">
                        <rect id="Rectangle_120" width="6.753" height="6.753" class="cls-5" rx="1.557"/>
                    </g>
                    <g id="Group_37708" transform="translate(25.108 7.824)">
                        <path id="Rectangle_121" d="M1.557 0H5.2a1.556 1.556 0 0 1 1.552 1.556V5.2A1.557 1.557 0 0 1 5.2 6.753H1.557A1.557 1.557 0 0 1 0 5.2V1.557A1.557 1.557 0 0 1 1.557 0z" class="cls-5"/>
                    </g>
                    <g id="Group_37709">
                        <path id="Rectangle_122" fill="#ffba00" d="M1.563 0h3.631a1.56 1.56 0 0 1 1.56 1.56V5.2A1.557 1.557 0 0 1 5.2 6.756H1.557A1.557 1.557 0 0 1 0 5.2V1.563A1.563 1.563 0 0 1 1.563 0z"/>
                    </g>
                    <g id="Group_37710" transform="translate(8.367)">
                        <path id="Path_3896" d="M567.874 167.89a.929.929 0 0 1-.925.929h-4.9a.93.93 0 0 1-.929-.929v-4.9a.927.927 0 0 1 .929-.926h4.9a.926.926 0 0 1 .925.926z" class="cls-6" transform="translate(-561.118 -162.063)"/>
                    </g>
                    <g id="Group_37711" transform="translate(16.739)">
                        <path id="Rectangle_123" d="M1.557 0H5.2a1.554 1.554 0 0 1 1.553 1.554V5.2A1.557 1.557 0 0 1 5.2 6.756H1.557A1.557 1.557 0 0 1 0 5.2V1.557A1.557 1.557 0 0 1 1.557 0z" class="cls-5"/>
                    </g>
                    <g id="Group_37712" transform="translate(25.107)">
                        <path id="Path_3897" d="M596.024 167.89a.928.928 0 0 1-.926.929h-4.9a.927.927 0 0 1-.925-.929v-4.9a.924.924 0 0 1 .925-.926h4.9a.925.925 0 0 1 .926.926z" class="cls-6" transform="translate(-589.271 -162.063)"/>
                    </g>
                    <g id="Group_37713" transform="translate(0 15.716)">
                        <path id="Rectangle_124" d="M1.557 0h3.637a1.56 1.56 0 0 1 1.56 1.56V5.2A1.556 1.556 0 0 1 5.2 6.756H1.557A1.557 1.557 0 0 1 0 5.2V1.557A1.557 1.557 0 0 1 1.557 0z" class="cls-5"/>
                    </g>
                    <g id="Group_37714" transform="translate(8.367 15.716)">
                        <path id="Path_3898" d="M567.874 194.322a.928.928 0 0 1-.925.926h-4.9a.929.929 0 0 1-.929-.926v-4.905a.929.929 0 0 1 .929-.925h4.9a.928.928 0 0 1 .925.925z" class="cls-6" transform="translate(-561.118 -188.492)"/>
                    </g>
                    <g id="Group_37715" transform="translate(16.739 15.716)">
                        <path id="Rectangle_125" d="M1.557 0H5.2a1.554 1.554 0 0 1 1.553 1.554V5.2A1.556 1.556 0 0 1 5.2 6.756H1.557A1.557 1.557 0 0 1 0 5.2V1.557A1.557 1.557 0 0 1 1.557 0z" class="cls-5"/>
                    </g>
                    <g id="Group_37716" transform="translate(0 23.611)">
                        <path id="Path_3899" d="M553.8 207.6a.924.924 0 0 1-.925.925h-4.9a.925.925 0 0 1-.927-.925v-4.905a.924.924 0 0 1 .927-.922h4.9a.924.924 0 0 1 .925.922z" class="cls-6" transform="translate(-547.048 -201.769)"/>
                    </g>
                    <g id="Group_37717" transform="translate(8.367 23.611)">
                        <path id="Path_3900" d="M567.874 207.6a.925.925 0 0 1-.925.925h-4.9a.926.926 0 0 1-.929-.925v-4.905a.926.926 0 0 1 .929-.922h4.9a.925.925 0 0 1 .925.922z" class="cls-6" transform="translate(-561.118 -201.769)"/>
                    </g>
                    <g id="Group_37718" transform="translate(16.738 23.611)">
                        <path id="Path_3901" d="M581.95 207.6a.925.925 0 0 1-.926.925h-4.9a.923.923 0 0 1-.924-.925v-4.905a.923.923 0 0 1 .924-.922h4.9a.925.925 0 0 1 .926.922z" class="cls-6" transform="translate(-575.197 -201.769)"/>
                    </g>
                    <g id="Group_37719" transform="translate(25.107 15.716)">
                        <path id="Path_3902" fill="#ffba00" fill-rule="evenodd" d="M596.024 192.126v-2.709a.927.927 0 0 0-.926-.925h-4.9a.926.926 0 0 0-.925.925v12.8a.924.924 0 0 0 .925.925h4.9a.925.925 0 0 0 .926-.925v-10.091z" transform="translate(-589.271 -188.492)"/>
                    </g>
                </g>
            </g>
            <g id="Group_37722" transform="translate(283.663 149.386)">
                <circle id="Ellipse_93" cx="24.319" cy="24.319" r="24.319" class="cls-9"/>
            </g>
            <g id="Group_37723" transform="translate(77.153 16.927)">
                <circle id="Ellipse_94" cx="24.319" cy="24.319" r="24.319" class="cls-9" transform="rotate(-1.683 48.645 .715)"/>
            </g>
            <g id="Group_37729" transform="translate(-.001 9.145)">
                <g id="Group_37728">
                    <g id="Group_37724" transform="translate(4.393)">
                        <path id="Path_3905" fill="purple" fill-rule="evenodd" d="M179.732 187.413a4.908 4.908 0 0 0 4.838 4.948h50.613a4.905 4.905 0 0 0 4.836-4.948v-37.6a4.908 4.908 0 0 0-4.836-4.951H184.57a4.911 4.911 0 0 0-4.838 4.951z" transform="translate(-179.732 -144.865)"/>
                    </g>
                    <g id="Group_37727" transform="translate(0 17.075)">
                        <g id="Group_37725">
                            <path id="Path_3906" d="M172.345 182.625a3.893 3.893 0 0 0 3.846 3.937h18.262a3.891 3.891 0 0 0 3.845-3.937v-5.111a3.889 3.889 0 0 0-3.845-3.933h-18.262a3.89 3.89 0 0 0-3.846 3.933z" class="cls-3" transform="translate(-172.345 -173.58)"/>
                        </g>
                        <g id="Group_37726" transform="translate(14.863 2.944)">
                            <path id="Path_3907" d="M197.341 181.913a3.306 3.306 0 1 0 3.3-3.382 3.343 3.343 0 0 0-3.3 3.382z" class="cls-6" transform="translate(-197.341 -178.531)"/>
                        </g>
                    </g>
                </g>
                <path id="Path_3908" d="M184.32 156.9v.381a.462.462 0 0 1-.463.463H180.2a.465.465 0 0 1-.467-.463v-.381a.465.465 0 0 1 .467-.463h3.659a.462.462 0 0 1 .463.463zm55.236-.463h-.632a.465.465 0 0 0-.466.463v.381a.465.465 0 0 0 .466.463h.632a.463.463 0 0 0 .463-.463v-.381a.463.463 0 0 0-.463-.463zm-3.85.463v.381a.463.463 0 0 1-.464.463h-3.661a.464.464 0 0 1-.463-.463v-.381a.464.464 0 0 1 .463-.463h3.661a.463.463 0 0 1 .464.463zm-7.34 0v.381a.464.464 0 0 1-.464.463h-3.661a.463.463 0 0 1-.463-.463v-.381a.463.463 0 0 1 .463-.463h3.659a.464.464 0 0 1 .464.463zm-7.34 0v.381a.464.464 0 0 1-.464.463H216.9a.463.463 0 0 1-.464-.463v-.381a.463.463 0 0 1 .464-.463h3.661a.464.464 0 0 1 .464.463zm-7.343 0v.381a.462.462 0 0 1-.463.463h-3.659a.465.465 0 0 1-.466-.463v-.381a.465.465 0 0 1 .466-.463h3.659a.462.462 0 0 1 .463.463zm-7.34 0v.381a.463.463 0 0 1-.463.463h-3.663a.464.464 0 0 1-.463-.463v-.381a.464.464 0 0 1 .463-.463h3.663a.463.463 0 0 1 .463.463zm-7.34 0v.381a.465.465 0 0 1-.465.463h-3.661a.462.462 0 0 1-.463-.463v-.381a.462.462 0 0 1 .463-.463h3.661a.465.465 0 0 1 .465.463zm-7.34 0v.381a.464.464 0 0 1-.464.463h-3.661a.463.463 0 0 1-.464-.463v-.381a.463.463 0 0 1 .464-.463h3.662a.464.464 0 0 1 .464.463z" class="cls-11" transform="translate(-175.339 -149.556)"/>
                <path id="Path_3909" d="M184.32 210.909v.378a.462.462 0 0 1-.463.463H180.2a.465.465 0 0 1-.467-.463v-.378a.468.468 0 0 1 .467-.466h3.659a.465.465 0 0 1 .463.466zm55.236-.466h-.632a.468.468 0 0 0-.466.466v.378a.466.466 0 0 0 .466.463h.632a.463.463 0 0 0 .463-.463v-.378a.466.466 0 0 0-.463-.466zm-3.85.466v.378a.464.464 0 0 1-.464.463h-3.661a.464.464 0 0 1-.463-.463v-.378a.467.467 0 0 1 .463-.466h3.661a.467.467 0 0 1 .464.466zm-7.34 0v.378a.465.465 0 0 1-.464.463h-3.661a.463.463 0 0 1-.463-.463v-.378a.466.466 0 0 1 .463-.466h3.659a.468.468 0 0 1 .464.466zm-7.34 0v.378a.465.465 0 0 1-.464.463H216.9a.464.464 0 0 1-.464-.463v-.378a.467.467 0 0 1 .464-.466h3.661a.468.468 0 0 1 .464.466zm-7.343 0v.378a.463.463 0 0 1-.463.463h-3.659a.465.465 0 0 1-.466-.463v-.378a.468.468 0 0 1 .466-.466h3.659a.466.466 0 0 1 .463.466zm-7.34 0v.378a.463.463 0 0 1-.463.463h-3.663a.465.465 0 0 1-.463-.463v-.378a.468.468 0 0 1 .463-.466h3.663a.466.466 0 0 1 .463.466zm-7.34 0v.378a.465.465 0 0 1-.465.463h-3.661a.462.462 0 0 1-.463-.463v-.378a.465.465 0 0 1 .463-.466h3.661a.468.468 0 0 1 .465.466zm-7.34 0v.378a.465.465 0 0 1-.464.463h-3.661a.464.464 0 0 1-.464-.463v-.378a.467.467 0 0 1 .464-.466h3.662a.468.468 0 0 1 .464.466z" class="cls-11" transform="translate(-175.339 -171.448)"/>
            </g>
            <g id="Group_37731" transform="translate(2.261 168.149)">
                <path id="Rectangle_126" d="M0 0H91.562V66.906H0z" class="cls-12" transform="translate(179.145 20.788)"/>
                <path id="Rectangle_127" d="M0 0H11.255V12.088H0z" class="cls-13" transform="translate(188.938 67.671)"/>
                <path id="Path_3910" d="M399.765 442.433h-16.049l-48.469-30.171-45.794 10.971 55.1 51.276 16.031 15.858h39.182z" class="cls-14" transform="translate(-222.079 -412.263)"/>
                <path id="Rectangle_128" d="M0 0H8.755V56.691H0z" class="cls-13" transform="translate(170.391 26.415)"/>
                <g id="Group_37730" transform="translate(0 10.971)">
                    <path id="Path_3911" d="M287.686 430.712H186.063a9.942 9.942 0 0 0-9.914 9.913v59.485a9.945 9.945 0 0 0 9.914 9.917h101.623a9.945 9.945 0 0 0 9.915-9.917v-59.485a9.942 9.942 0 0 0-9.915-9.913z" class="cls-15" transform="translate(-176.149 -430.712)"/>
                    <path id="Rectangle_129" d="M0 0H121.452V16.007H0z" class="cls-16" transform="translate(0 16.214)"/>
                    <path id="Rectangle_130" d="M0 0H77.309V10.07H0z" class="cls-17" transform="translate(44.143 39.657)"/>
                    <path id="Rectangle_131" d="M0 0H30.171V10.07H0z" class="cls-17" transform="translate(9.595 39.657)"/>
                    <path id="Path_3912" d="M261.026 510.027h-74.963a9.945 9.945 0 0 1-9.914-9.917v-59.485a9.94 9.94 0 0 1 9.914-9.913h30.351z" class="cls-18" transform="translate(-176.149 -430.712)"/>
                </g>
                <path id="Path_3913" d="M368.152 474.914h-53.668a14.107 14.107 0 0 0-14.067 14.067 14.106 14.106 0 0 0 14.067 14.064h53.668z" class="cls-14" transform="translate(-226.523 -437.659)"/>
                <path id="Path_3914" d="M325.084 483.324h-8.128a8.153 8.153 0 0 0-8.129 8.127v1.879a8.151 8.151 0 0 0 8.129 8.127h8.128z" class="cls-11" transform="translate(-229.932 -441.069)"/>
            </g>
            <g id="Group_37733" transform="translate(2.262 60.912)">
                <path id="Rectangle_132" d="M0 0H91.562V66.903H0z" class="cls-12" transform="translate(0 20.792)"/>
                <path id="Rectangle_133" d="M0 0H11.255V12.092H0z" class="cls-13" transform="translate(70.512 67.672)"/>
                <path id="Path_3915" d="M332.583 262.093h16.05l48.467-30.171 45.8 10.971-55.1 51.276-16.033 15.861h-39.184z" class="cls-14" transform="translate(-239.563 -231.922)"/>
                <path id="Rectangle_134" d="M0 0H8.757V56.69H0z" class="cls-13" transform="translate(91.562 26.419)"/>
                <g id="Group_37732" transform="translate(149.255 10.971)">
                    <path id="Path_3916" d="M437.067 250.372H538.69a9.946 9.946 0 0 1 9.915 9.917v59.484a9.946 9.946 0 0 1-9.915 9.917H437.067a9.945 9.945 0 0 1-9.914-9.917v-59.484a9.944 9.944 0 0 1 9.914-9.917z" class="cls-15" transform="translate(-427.153 -250.372)"/>
                    <path id="Rectangle_135" d="M0 0H121.452V16.004H0z" class="cls-16" transform="translate(0 16.217)"/>
                    <path id="Rectangle_136" d="M0 0H77.309V10.074H0z" class="cls-17" transform="translate(0 39.657)"/>
                    <path id="Rectangle_137" d="M0 0H30.171V10.074H0z" class="cls-17" transform="translate(81.686 39.657)"/>
                    <path id="Path_3917" d="M488.661 329.69h74.962a9.945 9.945 0 0 0 9.915-9.917v-59.484a9.942 9.942 0 0 0-9.915-9.917h-30.35z" class="cls-18" transform="translate(-452.086 -250.372)"/>
                </g>
                <path id="Path_3918" d="M393.224 294.58h53.665a14.11 14.11 0 0 1 14.071 14.067 14.11 14.11 0 0 1-14.071 14.067h-53.665z" class="cls-14" transform="translate(-264.144 -257.321)"/>
                <path id="Path_3919" d="M471.382 302.99h8.129a8.151 8.151 0 0 1 8.129 8.127v1.875a8.154 8.154 0 0 1-8.129 8.13h-8.129z" class="cls-11" transform="translate(-295.827 -260.73)"/>
            </g>
        </g>
    </g>
</svg>
