<svg xmlns="http://www.w3.org/2000/svg" width="11.193" height="11.193" viewBox="0 0 11.193 11.193">
    <defs>
        <style>
            .cls-1{fill:#7b8793}
        </style>
    </defs>
    <g id="incoming-call" transform="translate(.001 -.5)">
        <path id="Path_5089" d="M9.64 55.979l-1.7-1.114a1.11 1.11 0 0 0-1.3.057.827.827 0 0 1-1.1-.062l-1.72-1.722a.827.827 0 0 1-.062-1.1 1.11 1.11 0 0 0 .057-1.3L2.7 49.039a1.092 1.092 0 0 0-.851-.5 1.092 1.092 0 0 0-.914.372 3.723 3.723 0 0 0 .152 5.1l3.58 3.581a3.724 3.724 0 0 0 5.1.152 1.115 1.115 0 0 0-.128-1.765zm-.308 1.274a3.067 3.067 0 0 1-4.2-.126l-3.58-3.58a3.067 3.067 0 0 1-.126-4.2.435.435 0 0 1 .337-.154H1.8a.438.438 0 0 1 .35.206l1.114 1.7a.45.45 0 0 1-.022.535 1.482 1.482 0 0 0 .114 1.966l1.721 1.721a1.482 1.482 0 0 0 1.972.112.45.45 0 0 1 .535-.022l1.7 1.114a.459.459 0 0 1 .053.726zm0 0" class="cls-1" transform="translate(0 -46.987)"/>
        <path id="Path_5090" d="M293.806.6a.328.328 0 0 0-.464 0l-3.659 3.668V3.079a.328.328 0 0 0-.656 0v1.979a.328.328 0 0 0 .328.328h1.978a.328.328 0 1 0 0-.656h-1.188l3.661-3.67a.328.328 0 0 0 0-.464zm0 0" class="cls-1" transform="translate(-282.71)"/>
    </g>
</svg>
