<svg xmlns="http://www.w3.org/2000/svg" width="116" height="116" viewBox="0 0 116 116">
    <defs>
        <style>
            .cls-2{fill:purple}.cls-10{fill:#008b8b}
        </style>
    </defs>
    <g id="Group_37693" transform="translate(-876 -247)">
        <circle id="Ellipse_92" cx="58" cy="58" r="58" fill="purple" opacity="0.05" transform="translate(876 247)"/>
        <g id="research" transform="translate(896.714 257.357)">
            <path id="Path_3878" d="M401.85 270.535a2.194 2.194 0 0 1-3.1 0l-14.38-14.38 3.1-3.1 14.38 14.38a2.195 2.195 0 0 1 0 3.1z" class="cls-2" transform="translate(-329.777 -207.477)"/>
            <path id="Path_3879" fill="#d8d5ed" d="M45.519 121.329H.568A.568.568 0 0 1 0 120.76V57.228a.568.568 0 0 1 .568-.568h44.951a.568.568 0 0 1 .568.568v63.532a.568.568 0 0 1-.568.569z" transform="translate(0 -38.978)"/>
            <path id="Path_3880" fill="#ff2c5c" d="M41.691 332.99h-7.642a.568.568 0 0 1-.568-.568v-22.566a.568.568 0 0 1 .568-.568h7.642a.568.568 0 0 1 .568.568v22.566a.568.568 0 0 1-.568.568z" transform="translate(-28.726 -255.727)"/>
            <path id="Path_3881" fill="#ffd659" d="M138.528 279.958h-7.642a.568.568 0 0 1-.568-.568v-31.345a.568.568 0 0 1 .568-.568h7.642a.568.568 0 0 1 .568.568v31.344a.568.568 0 0 1-.568.569z" transform="translate(-111.81 -202.694)"/>
            <path id="Path_3882" fill="#4fc6f5" d="M237.425 299.4h-7.642a.568.568 0 0 1-.568-.568v-28.123a.568.568 0 0 1 .568-.568h7.642a.568.568 0 0 1 .568.568v28.126a.568.568 0 0 1-.568.565z" transform="translate(-196.661 -222.139)"/>
            <path id="Path_3883" fill="#e62753" d="M64.386 309.288v23.7h3.821a.568.568 0 0 0 .568-.568v-22.564a.568.568 0 0 0-.568-.568z" transform="translate(-55.242 -255.727)"/>
            <path id="Path_3884" fill="#ffbd54" d="M161.223 247.477v32.481h3.821a.568.568 0 0 0 .568-.568v-31.345a.568.568 0 0 0-.568-.568z" transform="translate(-138.326 -202.694)"/>
            <path id="Path_3885" fill="#3bb3e3" d="M260.121 270.141V299.4h3.821a.568.568 0 0 0 .568-.568v-28.123a.568.568 0 0 0-.568-.568z" transform="translate(-223.178 -222.139)"/>
            <g id="Group_37691" transform="translate(5.446 22.503)">
                <path id="Path_3886" d="M39.408 92.731H71.6a1.065 1.065 0 1 0 0-2.13H39.408a1.065 1.065 0 1 0 0 2.13z" class="cls-10" transform="translate(-38.343 -90.601)"/>
                <path id="Path_3887" d="M71.6 124.94H39.408a1.065 1.065 0 1 0 0 2.13H71.6a1.065 1.065 0 1 0 0-2.13z" class="cls-10" transform="translate(-38.343 -120.063)"/>
                <path id="Path_3888" d="M71.6 159.28H39.408a1.065 1.065 0 1 0 0 2.13H71.6a1.065 1.065 0 1 0 0-2.13z" class="cls-10" transform="translate(-38.343 -149.526)"/>
                <path id="Path_3889" d="M47.613 193.619h-8.2a1.065 1.065 0 0 0 0 2.13h8.2a1.065 1.065 0 0 0 0-2.13z" class="cls-10" transform="translate(-38.343 -178.988)"/>
            </g>
            <circle id="Ellipse_91" cx="23.263" cy="23.263" r="23.263" class="cls-2" transform="rotate(-45 44.362 5.226)"/>
            <path id="Path_3890" fill="#b5fcff" d="M196.5 63.178a18.874 18.874 0 1 1 0-26.692 18.9 18.9 0 0 1 0 26.692z" transform="translate(-140.954 -16.934)"/>
            <path id="Path_3891" fill="#71f6fc" d="M297.206 36.491a18.85 18.85 0 0 0-15.541-5.391 18.864 18.864 0 0 1 0 37.475 18.867 18.867 0 0 0 15.541-32.083z" transform="translate(-241.662 -16.938)"/>
        </g>
    </g>
</svg>
