<svg xmlns="http://www.w3.org/2000/svg" width="29" height="28" viewBox="0 0 29 28">
    <g transform="translate(-945 -467)">
        <ellipse cx="14.5" cy="14" fill="#cdcdcd" rx="14.5" ry="14" transform="translate(945 467)"/>
        <path fill="#aeaeae" d="M7.123 8.014a4.007 4.007 0 1 0-4.007-4.007 4.008 4.008 0 0 0 4.007 4.007zm3.562.89H9.152a4.844 4.844 0 0 1-4.057 0H3.562A3.561 3.561 0 0 0 0 12.466v.445a1.336 1.336 0 0 0 1.336 1.336h11.575a1.336 1.336 0 0 0 1.336-1.336v-.445A3.561 3.561 0 0 0 10.685 8.9z" transform="translate(952.877 472.67)"/>
    </g>
</svg>
