<svg xmlns="http://www.w3.org/2000/svg" width="38" height="37" viewBox="0 0 38 37">
    <g transform="translate(.195 -.375)">
        <rect width="38" height="37" fill="#7fca07" rx="18.5" transform="translate(-.195 .375)"/>
        <path fill="none" stroke="#fff" stroke-linecap="round" stroke-linejoin="round" stroke-width="1.5px" d="M18.654 14.385v2.49a1.662 1.662 0 0 1-1.813 1.66 16.482 16.482 0 0 1-7.178-2.548 16.2 16.2 0 0 1-4.991-4.981 16.407 16.407 0 0 1-2.554-7.2A1.662 1.662 0 0 1 3.774 2h2.5a1.662 1.662 0 0 1 1.659 1.428 10.641 10.641 0 0 0 .582 2.332 1.658 1.658 0 0 1-.374 1.752L7.084 8.566a13.3 13.3 0 0 0 4.991 4.981l1.056-1.054a1.666 1.666 0 0 1 1.755-.374 10.7 10.7 0 0 0 2.337.581 1.661 1.661 0 0 1 1.431 1.685z" transform="translate(8.403 9.453)"/>
    </g>
</svg>
