<svg xmlns="http://www.w3.org/2000/svg" width="582" height="419" viewBox="0 0 582 419">
    <defs>
        <clipPath id="clip-path">
            <path id="Rectangle_28" fill="#e8ffff" d="M0 0H582V419H0z" transform="translate(960.061 3282.047)"/>
        </clipPath>
        <style>
            .cls-3{fill:#e6e6e6}.cls-4{fill:#fff}.cls-5{fill:#6c63ff}.cls-6{fill:#fbbebe}.cls-7{fill:#2f2e41}.cls-8{fill:#575a89}.cls-9{fill:#ffb9b9}.cls-10{fill:#cfcce0}
        </style>
    </defs>
    <g id="Mask_Group_6" clip-path="url(#clip-path)" transform="translate(-960.061 -3282.047)">
        <g id="Features_4" transform="translate(960 3300.601)">
            <ellipse id="Ellipse_79" cx="291.061" cy="18.269" class="cls-3" rx="291.061" ry="18.269" transform="translate(0 345.355)"/>
            <path id="Path_3818" d="M637.48 119.529a2.072 2.072 0 0 0-2.07 2.07v81.124a2.072 2.072 0 0 0 2.07 2.07h94.754a2.072 2.072 0 0 0 2.07-2.07V121.6a2.072 2.072 0 0 0-2.07-2.07z" class="cls-3" transform="translate(-192.621 -119.529)"/>
            <path id="Path_3819" d="M653.106 176.736a.91.91 0 0 0 0 1.783h69.324a.91.91 0 0 0 0-1.783z" class="cls-4" transform="translate(-195.106 -127.907)"/>
            <path id="Path_3820" d="M652.108 189.148a.91.91 0 0 0 0 1.783h69.324a.91.91 0 0 0 0-1.783z" class="cls-4" transform="translate(-194.96 -129.724)"/>
            <path id="Path_3821" d="M653.106 201.561a.91.91 0 0 0 0 1.783h69.324a.91.91 0 0 0 0-1.783z" class="cls-4" transform="translate(-195.106 -131.542)"/>
            <path id="Path_3822" d="M653.106 135.3a.91.91 0 0 0 0 1.784h69.324a.91.91 0 0 0 0-1.784z" class="cls-4" transform="translate(-195.106 -121.838)"/>
            <path id="Path_3823" d="M652.108 147.712a.91.91 0 0 0 0 1.784h69.324a.91.91 0 0 0 0-1.784z" class="cls-4" transform="translate(-194.96 -123.656)"/>
            <path id="Path_3824" d="M653.106 160.125a.91.91 0 0 0 0 1.784h69.324a.91.91 0 0 0 0-1.784z" class="cls-4" transform="translate(-195.106 -125.474)"/>
            <path id="Path_3825" d="M587.861 158.394a2.072 2.072 0 0 0-2.07 2.07v81.124a2.072 2.072 0 0 0 2.07 2.07h94.754a2.072 2.072 0 0 0 2.07-2.07v-81.124a2.072 2.072 0 0 0-2.07-2.07z" class="cls-5" transform="translate(-185.354 -125.221)"/>
            <path id="Path_3826" d="M603.487 215.6a.91.91 0 0 0 0 1.783h69.323a.91.91 0 0 0 0-1.783z" class="cls-4" transform="translate(-187.839 -133.598)"/>
            <path id="Path_3827" d="M602.489 228.013a.91.91 0 0 0 0 1.783h69.323a.91.91 0 0 0 0-1.783z" class="cls-4" transform="translate(-187.693 -135.416)"/>
            <path id="Path_3828" d="M603.487 240.426a.91.91 0 0 0 0 1.783h69.323a.91.91 0 0 0 0-1.783z" class="cls-4" transform="translate(-187.839 -137.234)"/>
            <path id="Path_3829" d="M603.487 174.165a.91.91 0 0 0 0 1.784h69.323a.91.91 0 0 0 0-1.784z" class="cls-4" transform="translate(-187.839 -127.53)"/>
            <path id="Path_3830" d="M602.489 186.578a.91.91 0 0 0 0 1.784h69.323a.91.91 0 0 0 0-1.784z" class="cls-4" transform="translate(-187.693 -129.348)"/>
            <path id="Path_3831" d="M603.487 198.991a.91.91 0 0 0 0 1.784h69.323a.91.91 0 0 0 0-1.784z" class="cls-4" transform="translate(-187.839 -131.166)"/>
            <path id="Path_3832" d="M628.389 393.243l.5 9.436 10.429-.993-.993-9.436z" class="cls-6" transform="translate(-92.026 -57.444)"/>
            <path id="Path_3833" d="M581.259 380.443l.5 9.436 10.43-.993-.994-9.436z" class="cls-6" transform="translate(-85.124 -55.569)"/>
            <path id="Path_3834" d="M744.869 362.535l-37.745 6.456-2.483 68.536-9.933 43.7 15.893 6.953L726 444.977l5.463-38.241 3.973 38.241.5 48.174 24.335-1.49-5.82-94.337a87.765 87.765 0 0 0-9.578-34.79z" class="cls-7" transform="translate(-201.305 -155.116)"/>
            <path id="Path_3835" d="M745.848 519.442s-3.476-3.973-3.476-2.483-1.987 15.893-1.987 15.893 13.409 3.973 13.409 6.456 19.369 6.456 18.872 1.49-17.382-23.839-17.382-23.839-6.953-.993-9.436 2.483z" class="cls-7" transform="translate(-207.994 -177.683)"/>
            <path id="Path_3836" d="M698.411 506.494s-1.059-5.172-1.795-3.877-9.581 12.834-9.581 12.834 9.694 10.081 8.466 12.24 13.647 15.185 15.67 10.622-3.33-29.313-3.33-29.313-5.553-4.3-9.43-2.506z" class="cls-7" transform="translate(-200.181 -175.601)"/>
            <path id="Path_3837" d="M582.821 173.942l27.495 2.629 9.165-24.975-26.322-6.341z" class="cls-7" transform="translate(-85.353 -21.272)"/>
            <circle id="Ellipse_80" cx="13.906" cy="13.906" r="13.906" class="cls-6" transform="translate(506.068 119.76)"/>
            <path id="Path_3838" d="M715.015 286.021s0 9.436-7.45 13.409 17.879 8.443 17.879 8.443l2.483-8.443s-7.45-3.477-.993-11.423z" class="cls-6" transform="translate(-202.987 -143.911)"/>
            <path id="Path_3839" d="M724.7 298.651s-9.1 5.634-16.716.582l-3.15-.582-9.436 1.987-4.47 16.886 16.886 42.215s29.3 4.966 35.261-5.96l-3.476-44.7-9.436-11.423z" class="cls-8" transform="translate(-200.751 -145.615)"/>
            <path id="Path_3840" d="M617.972 172.461l16.389-22.846-1.49-2.483-21.356-10.926v-6.953l33.275 8.94 2.251 3.568-19.634 42.62z" class="cls-8" transform="translate(-89.555 -18.929)"/>
            <path id="Path_3841" d="M573.6 177.856l-.993-.5-24.832-.993 18.873-16.389-5.96-7.449-28.309 21.356v4.966l40.228 16.886z" class="cls-8" transform="translate(-77.966 -22.337)"/>
            <path id="Path_3842" d="M681.908 273.151l3.477-1.987s7.45-9.933 10.429-5.96-6.953 11.423-6.953 11.423l-5.463 1.987z" class="cls-6" transform="translate(-199.43 -140.725)"/>
            <path id="Path_3843" d="M726.474 250.017l-5.463-2.98s-16.389 1.49-14.4 4.966 13.409.5 13.409.5l6.456 1.987z" class="cls-6" transform="translate(-203.023 -138.202)"/>
            <path id="Path_3844" d="M711 259.828s-6.383 2.128-6.708 10.531a14.913 14.913 0 0 0 .443 3.99c.359 1.523.59 4.8-2.2 9.084a89.924 89.924 0 0 0-5.1 8.779l-.02.04 7.011.876 1.491-11.621a57.868 57.868 0 0 1 4.6-16.314l.049-.108s3.067 5.7 9.2 5.7l-2.191-2.191s9.64 3.943 13.145 3.943c0 0 2.629 1.753 0 4.382s-7.887 8.763-4.82 13.583.438 6.134.438 6.134l4.82-2.629 2.191-1.314v1.753l11.392-1.314s3.067-.438-3.505-7.887c0 0-1.736-2.893-.976-5.387a12.584 12.584 0 0 0 .478-5.885c-1.475-8.217-7.251-24.548-29.738-14.145z" class="cls-7" transform="translate(-201.702 -139.583)"/>
            <path id="Path_3845" d="M244.841 269.909a1.3 1.3 0 0 0-1.3 1.3v98.97a1.3 1.3 0 0 0 1.3 1.3h225.92a1.3 1.3 0 0 0 1.3-1.3V271.2a1.3 1.3 0 0 0-1.3-1.3z" class="cls-3" transform="translate(-135.233 -141.552)"/>
            <path id="Path_3846" d="M445.391 292.251H280.614a1.555 1.555 0 1 1 0-3.109h164.777a1.555 1.555 0 1 1 0 3.109z" class="cls-4" transform="translate(-140.434 -144.368)"/>
            <path id="Path_3847" d="M445.391 306.821H280.614a1.554 1.554 0 1 1 0-3.109h164.777a1.554 1.554 0 1 1 0 3.109z" class="cls-4" transform="translate(-140.434 -146.502)"/>
            <path id="Path_3848" d="M445.391 321.39H280.614a1.554 1.554 0 1 1 0-3.109h164.777a1.554 1.554 0 1 1 0 3.109z" class="cls-4" transform="translate(-140.434 -148.636)"/>
            <path id="Path_3849" d="M445.391 335.85H280.614a1.554 1.554 0 1 1 0-3.109h164.777a1.554 1.554 0 1 1 0 3.109z" class="cls-4" transform="translate(-140.434 -150.753)"/>
            <path id="Path_3850" d="M445.391 350.42H280.614a1.554 1.554 0 1 1 0-3.109h164.777a1.555 1.555 0 0 1 0 3.109z" class="cls-4" transform="translate(-140.434 -152.887)"/>
            <path id="Path_3851" d="M424.851 363.076a.444.444 0 0 0-.444.444v11.767a.444.444 0 0 0 .444.444h41.161a.444.444 0 0 0 .444-.444V363.52a.444.444 0 0 0-.444-.444z" class="cls-4" transform="translate(-161.72 -155.196)"/>
            <path id="Path_3852" d="M158.79 387.88l-4.128 49.619a62.27 62.27 0 0 1-3.648 16.053 15.1 15.1 0 0 0-1.459 5.837V496.6a2.169 2.169 0 0 0-2.189 2.919c.73 2.919 1.459 8.026 1.459 8.026h10.945a2.26 2.26 0 0 1 1.459-2.919c2.189-.73 0-6.567 0-6.567l11.671-43.778 17.516-36.481s10.215 32.835 12.4 36.484c0 0 8.026 40.862 9.486 44.51s2.189 3.648 1.459 5.108-.73 2.919 0 3.648 14.594 0 14.594 0l-3.648-51.807-6.567-62.022-33.562-10.221z" class="cls-7" transform="translate(-121.131 -158.187)"/>
            <path id="Path_3853" d="M155.3 520.823s-3.648-13.134-9.486-2.919-5.837 13.864-5.837 13.864-9.486 13.864 3.648 12.4 10.216-8.026 10.216-8.026 5.108-2.919 5.108-5.108-3.649-10.211-3.649-10.211z" class="cls-7" transform="translate(-119.581 -177.3)"/>
            <path id="Path_3854" d="M227.117 519.113s3.648-13.134 9.486-2.919 5.837 13.864 5.837 13.864 9.486 13.864-3.648 12.4-10.215-8.026-10.215-8.026-5.108-2.919-5.108-5.108 3.648-10.211 3.648-10.211z" class="cls-7" transform="translate(-132.293 -177.05)"/>
            <path id="Path_3855" d="M186.918 273.224s1.459 9.486-2.919 11.675 9.486 10.216 13.134 10.216 10.215-7.3 10.215-7.3-3.648-10.945-2.919-13.134z" class="cls-9" transform="translate(-126.389 -142.037)"/>
            <circle id="Ellipse_81" cx="15.323" cy="15.323" r="15.323" class="cls-9" transform="translate(53.233 107.837)"/>
            <path id="Path_3856" d="M221.455 298.451L203.214 287.4s-10.379 11.782-21.607-1.353l-19.255 5.108 2.919 49.618s-4.378 19.7-2.919 23.35-3.648 5.108-2.189 5.837 0 5.837 0 5.837 28.457 14.594 59.837 3.649l-2.919-9.486a7.657 7.657 0 0 0-1.459-7.3s2.919-4.378-.73-8.026c0 0 1.459-6.567-2.189-9.486l-.73-10.216 2.189-5.108z" class="cls-10" transform="translate(-122.983 -143.915)"/>
            <path id="Path_3857" d="M186.355 253.43s-1.827 3.953 5.481 2.372c0 0 2.74 1.581 2.74-.791 0 0 3.654 3.953 4.567 1.581s2.74.791 2.74.791l1.827-3.953 1.827 2.372h6.394s1.827-15.814-20.1-14.233-11.131 26.638-11.131 26.638.177-4.5 2-2.125 3.655-12.652 3.655-12.652z" class="cls-7" transform="translate(-125.641 -137.385)"/>
            <path id="Path_3858" d="M237.359 334.774l.73 15.323s2.919 28.457-2.919 40.862v6.567s-1.459 16.783-8.756 16.053S228.6 389.5 228.6 389.5l-1.459-32.106-1.459-18.242z" class="cls-9" transform="translate(-132.32 -151.051)"/>
            <path id="Path_3859" d="M221.487 301.232l7.279-1.183A35.538 35.538 0 0 1 239 318.744c2.189 11.675 2.919 13.864 2.919 13.864l-17.512 4.378-9.486-18.242z" class="cls-10" transform="translate(-131.041 -145.966)"/>
            <path id="Path_3860" d="M186.6 306.5a1.3 1.3 0 0 0-1.3 1.3v98.97a1.3 1.3 0 0 0 1.3 1.3h225.92a1.3 1.3 0 0 0 1.3-1.3V307.8a1.3 1.3 0 0 0-1.3-1.3z" class="cls-5" transform="translate(-126.703 -146.91)"/>
            <path id="Path_3861" d="M387.146 328.841H222.369a1.554 1.554 0 1 1 0-3.109h164.777a1.555 1.555 0 1 1 0 3.109z" class="cls-4" transform="translate(-131.904 -149.727)"/>
            <path id="Path_3862" d="M387.146 343.411H222.369a1.555 1.555 0 0 1 0-3.109h164.777a1.555 1.555 0 0 1 0 3.109z" class="cls-4" transform="translate(-131.904 -151.861)"/>
            <path id="Path_3863" d="M387.146 357.981H222.369a1.554 1.554 0 1 1 0-3.109h164.777a1.555 1.555 0 1 1 0 3.109z" class="cls-4" transform="translate(-131.904 -153.994)"/>
            <path id="Path_3864" d="M387.146 372.44H222.369a1.555 1.555 0 0 1 0-3.109h164.777a1.555 1.555 0 0 1 0 3.109z" class="cls-4" transform="translate(-131.904 -156.112)"/>
            <path id="Path_3865" d="M387.146 387.01H222.369a1.555 1.555 0 1 1 0-3.109h164.777a1.555 1.555 0 1 1 0 3.109z" class="cls-4" transform="translate(-131.904 -158.245)"/>
            <path id="Path_3866" d="M366.606 399.667a.444.444 0 0 0-.444.444v11.767a.444.444 0 0 0 .444.444h41.161a.444.444 0 0 0 .444-.444v-11.767a.444.444 0 0 0-.444-.444z" class="cls-4" transform="translate(-153.19 -160.554)"/>
            <path id="Path_3867" d="M149.516 321.368s-6.567 27.728 1.459 27.728 27-31.376 27-31.376 19.7-10.215 11.675-13.864-18.242 5.837-18.242 5.837l-11.787 16.365-.621-8.338z" class="cls-9" transform="translate(-121.092 -146.401)"/>
            <path id="Path_3868" d="M164.772 296.409l-4.378-4.378s-8.756 5.108-9.486 10.215-4.378 21.161-4.378 21.161l13.5 1.095 4.378-6.567z" class="cls-10" transform="translate(-121.025 -144.791)"/>
        </g>
    </g>
</svg>
