<svg xmlns="http://www.w3.org/2000/svg" width="563" height="407" viewBox="0 0 563 407">
    <defs>
        <clipPath id="clip-path">
            <path id="Rectangle_30" fill="#e8ffff" d="M0 0H563V407H0z" transform="translate(279.52 2790.854)"/>
        </clipPath>
        <style>
            .cls-3{fill:#3f3d56}.cls-4{fill:#6c63ff}.cls-5{fill:#2f2e41}.cls-6{fill:#ffb8b8}.cls-7{fill:#d0cde1}
        </style>
    </defs>
    <g id="Mask_Group_5" clip-path="url(#clip-path)" transform="translate(-279.52 -2790.854)">
        <g id="Features_3" transform="translate(279.006 2797.686)">
            <circle id="Ellipse_75" cx="24.385" cy="24.385" r="24.385" class="cls-3" transform="translate(345.626 344.035)"/>
            <path id="Path_3795" d="M487.732 496.024l-12.2-12.2a2.121 2.121 0 1 1 3-3l9 9 28.723-32.754a2.12 2.12 0 0 1 3.188 2.8z" class="cls-4" transform="translate(-117.62 -120.262)"/>
            <path id="Rectangle_50" d="M0 0H258.689V307.48H0z" class="cls-3" transform="translate(134.646 16.688)"/>
            <path id="Path_3796" d="M297.711 102.082h62.567V198.3H282.83v-81.337a14.88 14.88 0 0 1 14.881-14.88z" class="cls-5" transform="translate(-48.58 -17.534)"/>
            <path id="Path_3797" d="M317.935 240.254s-14.433-.9-24.356 8.119S280.95 261 280.95 261s-51.419 30.671-32.475 41.5 42.4 24.356 42.4 24.356 0 27.063 9.923 26.16.9-31.573.9-31.573l-34.279-26.16 34.281-19.848 11.727 11.727s9.921-36.083 4.508-46.908z" class="cls-6" transform="translate(-78.006 -83.141)"/>
            <path id="Path_3798" d="M405.1 423.216H249.978c9.256-37.324 28.816-58.7 42.678-69.708a88.564 88.564 0 0 1 12.007-8.105c2.168-1.2 3.424-1.739 3.424-1.739l.838-5.031.965-5.794 62.245 14.435-.466 5.11-.435 4.813z" class="cls-5" transform="translate(-78.984 -99.048)"/>
            <path id="Path_3799" d="M419.9 263.132s17.14 5.412 15.335 20.748-6.315 69.46-6.315 69.46l25.258 55.027s26.16 30.671 10.825 36.083-23.454-34.279-23.454-34.279l-34.279-50.517 2.706-54.125 2.706-29.769z" class="cls-6" transform="translate(-106.002 -87.075)"/>
            <circle id="Ellipse_76" cx="27.063" cy="27.063" r="27.063" class="cls-6" transform="translate(249.852 85.849)"/>
            <path id="Path_3800" d="M357.94 206.5s12.629 23.449-18.94 28.862l-3.612 18.038 29.769 53.223 35.181-30.671 7.217-20.748S372.373 238.97 385 206.5z" class="cls-6" transform="translate(-93.655 -77.347)"/>
            <path id="Path_3801" d="M365.021 292.019l-22.552-30.671-6.315-24.356h-10.825l3.608 27.063-5.111 8.031a31.9 31.9 0 0 0-3.91 25.346l-.9 24.356 65.852 14.433 9.923-16.237s.351-.251.923-.731a24.1 24.1 0 0 0 6.767-27.4L399.3 283.9l11.727-26.16-10.827-3.609-9.021 23.454z" class="cls-4" transform="translate(-90.812 -82.585)"/>
            <path id="Path_3802" d="M362.838 133.04s-30.509-1.891-37.55 17.081-19.362 28.933-19.362 28.933-19.409 13.491-9.7 37.575c0 0-30.193 20.29-10.244 38.313 0 0-1.173 18.024 10.561 30.355 0 0 9.387 4.743 5.867 7.589s23.469.949 21.122-24.664 13.495-43.654 13.495-43.654-15.255-33.207-8.214-44.591c4.275-6.911 6.11-12.065 9.659-15.048a44.519 44.519 0 0 0 5.478-5.346 12.64 12.64 0 0 1 13.612-4.245c10.561 2.846 12.908 11.383 12.908 11.383s7.627 20.4 20.535 29.881-9.974 26.087-9.974 26.087S385 242.234 395.336 253.8s-2.978 21.658-3.749 22.955c-1.76 2.96-8.789 21.652 20.247 21.735 0 0 6.742-14.146 16.129-22.684s2.347-33.2 2.347-33.2 14.081-8.537-1.173-29.407c0 0 4.694-18.972-8.214-31.3 0 .001-18.188-55.499-58.085-48.859z" class="cls-5" transform="translate(-83.997 -64.635)"/>
            <ellipse id="Ellipse_77" cx="3.236" cy="5.177" class="cls-6" rx="3.236" ry="5.177" transform="translate(246.071 108.312)"/>
            <path id="Rectangle_51" d="M0 0H140.477V307.989H0z" class="cls-7" transform="translate(.53 16.433)"/>
            <path id="Rectangle_52" d="M0 0H140.477V307.989H0z" class="cls-7" transform="translate(389.094 16.433)"/>
            <path id="Rectangle_53" d="M0 0H86.407V1.06H0z" class="cls-3" transform="translate(327.073 392.275)"/>
            <path id="Path_3803" d="M602.094 278.2c-11.538.247-20.717 8.609-20.717 8.609s9.528 7.96 21.066 7.713 20.716-8.609 20.716-8.609-9.528-7.962-21.065-7.713z" class="cls-4" transform="translate(-135.907 -89.662)"/>
            <path id="Path_3804" d="M671.789 227.026c-10.424 4.952-22.377 1.594-22.377 1.594s4.948-11.388 15.372-16.34 22.377-1.594 22.377-1.594-4.95 11.388-15.372 16.34z" class="cls-4" transform="translate(-147.593 -77.876)"/>
            <path id="Path_3805" d="M670.68 224.682c-11.493-1.05-21.552 6.227-21.552 6.227s8.574 8.98 20.067 10.031 21.552-6.227 21.552-6.227-8.574-8.981-20.067-10.031z" class="cls-3" transform="translate(-147.545 -80.453)"/>
            <path id="Path_3806" d="M620.888 222.954c1.1 11.488-6.131 21.58-6.131 21.58s-9.018-8.534-10.12-20.022 6.131-21.58 6.131-21.58 9.018 8.534 10.12 20.022z" class="cls-3" transform="translate(-139.883 -76.735)"/>
            <path id="Path_3807" d="M555.153 309.363c6.028 9.841 3.954 22.083 3.954 22.083s-11.847-3.714-17.875-13.556-3.954-22.083-3.954-22.083 11.846 3.714 17.875 13.556z" class="cls-3" transform="translate(-128.273 -92.687)"/>
            <path id="Path_3808" d="M576.971 405.391l-.878-.594a27.522 27.522 0 0 0 4.857-15.263c-.025-7.982-3.945-15.365-7.737-22.5-.7-1.325-1.405-2.646-2.08-3.966a86.577 86.577 0 0 1-6.734-16.907c-5.881-21.856-.091-47.642 15.489-68.978 12.36-16.925 30.784-31.726 56.325-45.247l.5.937c-25.4 13.444-43.7 28.143-55.965 44.935-15.393 21.079-21.12 46.528-15.321 68.077a85.562 85.562 0 0 0 6.654 16.7c.673 1.315 1.372 2.631 2.073 3.952 3.852 7.254 7.835 14.754 7.861 23a28.592 28.592 0 0 1-5.044 15.854z" class="cls-3" transform="translate(-132.604 -81.716)"/>
            <circle id="Ellipse_78" cx="10.072" cy="10.072" r="10.072" class="cls-3" transform="translate(543.884 131.465)"/>
            <path id="Path_3809" d="M573.624 67.526H43.523V50.563h530.1zm-529.041-1.06h527.981V51.623H44.583z" class="cls-3" transform="translate(-43.523 -50.563)"/>
            <path id="Path_3810" d="M56.5 65.005a5.3 5.3 0 1 1 5.3-5.3 5.3 5.3 0 0 1-5.3 5.3zm0-9.542a4.241 4.241 0 1 0 4.245 4.237 4.241 4.241 0 0 0-4.245-4.237z" class="cls-3" transform="translate(-44.842 -51.223)"/>
            <path id="Path_3811" d="M73.785 65.005a5.3 5.3 0 1 1 5.3-5.3 5.3 5.3 0 0 1-5.3 5.3zm0-9.542a4.241 4.241 0 1 0 4.241 4.237 4.241 4.241 0 0 0-4.241-4.237z" class="cls-3" transform="translate(-47.81 -51.223)"/>
            <path id="Path_3812" d="M91.066 65.005a5.3 5.3 0 1 1 5.3-5.3 5.3 5.3 0 0 1-5.3 5.3zm0-9.542a4.241 4.241 0 1 0 4.241 4.237 4.241 4.241 0 0 0-4.241-4.237z" class="cls-3" transform="translate(-50.778 -51.223)"/>
            <path id="Rectangle_54" d="M0 0H119.008V21.734H0z" class="cls-4" transform="translate(7.156 235.365)"/>
            <path id="Path_3813" d="M179.808 355.575H51.523v-29.156h128.285zm-127.224-1.06h126.163v-27.036H52.583z" class="cls-3" transform="translate(-44.897 -97.945)"/>
            <path id="Path_3814" d="M142.061 145.267c-3.014 11.14-13.336 18.04-13.336 18.04s-5.436-11.163-2.423-22.3 13.336-18.04 13.336-18.04 5.437 11.16 2.423 22.3z" class="cls-4" transform="translate(-57.585 -62.999)"/>
            <path id="Path_3815" d="M112.228 145.267c3.014 11.14 13.336 18.04 13.336 18.04S131 152.144 127.987 141s-13.336-18.04-13.336-18.04-5.437 11.167-2.423 22.307z" class="cls-4" transform="translate(-55.167 -62.999)"/>
            <path id="Path_3816" d="M113.478 145.192c8.27 8.05 9.279 20.425 9.279 20.425s-12.4-.677-20.667-8.727-9.28-20.425-9.28-20.425 12.398.677 20.668 8.727z" class="cls-3" transform="translate(-51.988 -65.318)"/>
            <path id="Path_3817" d="M138.247 145.192c-8.27 8.05-9.279 20.425-9.279 20.425s12.4-.677 20.667-8.727 9.28-20.425 9.28-20.425-12.398.677-20.668 8.727z" class="cls-3" transform="translate(-58.199 -65.318)"/>
            <path id="Rectangle_55" d="M0 0H89.057V5.301H0z" class="cls-3" transform="translate(26.24 40.553)"/>
            <path id="Rectangle_56" d="M0 0H89.057V5.301H0z" class="cls-3" transform="translate(26.24 120.068)"/>
            <path id="Rectangle_57" d="M0 0H89.057V5.301H0z" class="cls-3" transform="translate(26.24 131.73)"/>
            <path id="Rectangle_58" d="M0 0H89.057V5.301H0z" class="cls-3" transform="translate(26.24 143.392)"/>
            <path id="Rectangle_59" d="M0 0H89.057V5.301H0z" class="cls-3" transform="translate(414.804 40.553)"/>
            <path id="Rectangle_60" d="M0 0H89.057V5.301H0z" class="cls-3" transform="translate(414.804 52.215)"/>
            <path id="Rectangle_61" d="M0 0H89.057V5.301H0z" class="cls-3" transform="translate(414.804 63.877)"/>
        </g>
    </g>
</svg>
