<?xml version="1.0" encoding="utf-8"?>
<svg version="1.1" xmlns:xlink="http://www.w3.org/1999/xlink" width="20px" height="20px" xmlns="http://www.w3.org/2000/svg">
  <g transform="matrix(1 0 0 1 -39 -246 )">
    <path d="M 13.9302884615385 15.1729910714286  C 14.2668269230769 14.8121279761905  14.4350961538462 14.360119047619  14.4350961538462 13.8169642857143  C 14.4350961538462 13.3928571428571  14.4130608974359 12.9947916666667  14.3689903846154 12.6227678571429  C 14.3249198717949 12.250744047619  14.2407852564103 11.8768601190476  14.1165865384615 11.5011160714286  C 13.9923878205128 11.1253720238095  13.8341346153846 10.805431547619  13.6418269230769 10.5412946428571  C 13.4495192307692 10.2771577380952  13.193108974359 10.0613839285714  12.8725961538462 9.89397321428571  C 12.5520833333333 9.7265625  12.1875 9.64285714285714  11.7788461538462 9.64285714285714  C 11.7307692307692 9.67261904761905  11.5965544871795 9.74888392857143  11.3762019230769 9.87165178571429  C 11.1558493589744 9.99441964285714  10.9855769230769 10.0855654761905  10.8653846153846 10.1450892857143  C 10.7451923076923 10.2046130952381  10.5829326923077 10.2790178571429  10.3786057692308 10.3683035714286  C 10.1742788461538 10.4575892857143  9.97796474358974 10.5208333333333  9.78966346153846 10.5580357142857  C 9.60136217948718 10.5952380952381  9.4150641025641 10.6138392857143  9.23076923076923 10.6138392857143  C 9.04647435897436 10.6138392857143  8.86017628205128 10.5952380952381  8.671875 10.5580357142857  C 8.48357371794872 10.5208333333333  8.28725961538462 10.4575892857143  8.08293269230769 10.3683035714286  C 7.87860576923077 10.2790178571429  7.71634615384615 10.2046130952381  7.59615384615385 10.1450892857143  C 7.47596153846154 10.0855654761905  7.3056891025641 9.99441964285714  7.08533653846154 9.87165178571429  C 6.86498397435898 9.74888392857143  6.73076923076923 9.67261904761905  6.68269230769231 9.64285714285714  C 6.27403846153846 9.64285714285714  5.90945512820513 9.7265625  5.58894230769231 9.89397321428571  C 5.26842948717949 10.0613839285714  5.01201923076923 10.2771577380952  4.81971153846154 10.5412946428571  C 4.62740384615385 10.805431547619  4.46915064102564 11.1253720238095  4.34495192307692 11.5011160714286  C 4.22075320512821 11.8768601190476  4.13661858974359 12.250744047619  4.09254807692308 12.6227678571429  C 4.04847756410256 12.9947916666667  4.02644230769231 13.3928571428571  4.02644230769231 13.8169642857143  C 4.02644230769231 14.360119047619  4.19471153846154 14.8121279761905  4.53125 15.1729910714286  C 4.86778846153846 15.5338541666667  5.28044871794872 15.7142857142857  5.76923076923077 15.7142857142857  L 12.6923076923077 15.7142857142857  C 13.1810897435897 15.7142857142857  13.59375 15.5338541666667  13.9302884615385 15.1729910714286  Z M 11.4362980769231 9.22991071428571  C 12.0492788461538 8.66443452380952  12.3557692307692 7.98363095238095  12.3557692307692 7.1875  C 12.3557692307692 6.38392857142857  12.0492788461538 5.69940476190476  11.4362980769231 5.13392857142857  C 10.8233173076923 4.56845238095238  10.088141025641 4.28571428571429  9.23076923076923 4.28571428571429  C 8.37339743589744 4.28571428571429  7.63822115384615 4.56845238095238  7.02524038461538 5.13392857142857  C 6.41225961538462 5.69940476190476  6.10576923076923 6.38392857142857  6.10576923076923 7.1875  C 6.10576923076923 7.98363095238095  6.41225961538462 8.66443452380952  7.02524038461538 9.22991071428571  C 7.63822115384615 9.79538690476191  8.37339743589744 10.078125  9.23076923076923 10.078125  C 10.088141025641 10.078125  10.8233173076923 9.79538690476191  11.4362980769231 9.22991071428571  Z M 19.8918269230769 12.9575892857143  C 19.9639423076923 13.0245535714286  20 13.110119047619  20 13.2142857142857  L 20 15.3571428571429  C 20 15.4613095238095  19.9639423076923 15.546875  19.8918269230769 15.6138392857143  C 19.8197115384615 15.6808035714286  19.7275641025641 15.7142857142857  19.6153846153846 15.7142857142857  L 18.4615384615385 15.7142857142857  L 18.4615384615385 18.2142857142857  C 18.4615384615385 18.7053571428571  18.2732371794872 19.125744047619  17.8966346153846 19.4754464285714  C 17.5200320512821 19.8251488095238  17.0673076923077 20  16.5384615384615 20  L 1.92307692307692 20  C 1.39423076923077 20  0.94150641025641 19.8251488095238  0.564903846153846 19.4754464285714  C 0.188301282051282 19.125744047619  0 18.7053571428571  0 18.2142857142857  L 0 1.78571428571429  C 0 1.29464285714286  0.188301282051282 0.874255952380951  0.564903846153846 0.524553571428572  C 0.94150641025641 0.174851190476191  1.39423076923077 0  1.92307692307692 0  L 16.5384615384615 0  C 17.0673076923077 0  17.5200320512821 0.174851190476191  17.8966346153846 0.524553571428572  C 18.2732371794872 0.874255952380951  18.4615384615385 1.29464285714286  18.4615384615385 1.78571428571429  L 18.4615384615385 4.28571428571429  L 19.6153846153846 4.28571428571429  C 19.7275641025641 4.28571428571429  19.8197115384615 4.31919642857143  19.8918269230769 4.38616071428571  C 19.9639423076923 4.453125  20 4.53869047619047  20 4.64285714285714  L 20 6.78571428571429  C 20 6.88988095238095  19.9639423076923 6.97544642857143  19.8918269230769 7.04241071428571  C 19.8197115384615 7.109375  19.7275641025641 7.14285714285714  19.6153846153846 7.14285714285714  L 18.4615384615385 7.14285714285714  L 18.4615384615385 8.57142857142857  L 19.6153846153846 8.57142857142857  C 19.7275641025641 8.57142857142857  19.8197115384615 8.60491071428571  19.8918269230769 8.671875  C 19.9639423076923 8.73883928571429  20 8.82440476190476  20 8.92857142857143  L 20 11.0714285714286  C 20 11.1755952380952  19.9639423076923 11.2611607142857  19.8918269230769 11.328125  C 19.8197115384615 11.3950892857143  19.7275641025641 11.4285714285714  19.6153846153846 11.4285714285714  L 18.4615384615385 11.4285714285714  L 18.4615384615385 12.8571428571429  L 19.6153846153846 12.8571428571429  C 19.7275641025641 12.8571428571429  19.8197115384615 12.890625  19.8918269230769 12.9575892857143  Z " fill-rule="nonzero" fill="#676060" stroke="none" transform="matrix(1 0 0 1 39 246 )" />
  </g>
</svg>