<?xml version="1.0" encoding="utf-8"?>
<svg version="1.1" xmlns:xlink="http://www.w3.org/1999/xlink" width="30px" height="30px" xmlns="http://www.w3.org/2000/svg">
  <g transform="matrix(1 0 0 1 -287 -29 )">
    <path d="M 29.62890625 24.4453125  C 29.8763020833333 24.7421875  30 25.09375  30 25.5  L 30 28.5  C 30 28.90625  29.8763020833333 29.2578125  29.62890625 29.5546875  C 29.3815104166667 29.8515625  29.0885416666667 30  28.75 30  L 1.25 30  C 0.911458333333333 30  0.618489583333333 29.8515625  0.37109375 29.5546875  C 0.123697916666667 29.2578125  0 28.90625  0 28.5  L 0 25.5  C 0 25.09375  0.123697916666667 24.7421875  0.37109375 24.4453125  C 0.618489583333333 24.1484375  0.911458333333333 24  1.25 24  L 28.75 24  C 29.0885416666667 24  29.3815104166667 24.1484375  29.62890625 24.4453125  Z M 29.62890625 12.4453125  C 29.8763020833333 12.7421875  30 13.09375  30 13.5  L 30 16.5  C 30 16.90625  29.8763020833333 17.2578125  29.62890625 17.5546875  C 29.3815104166667 17.8515625  29.0885416666667 18  28.75 18  L 1.25 18  C 0.911458333333333 18  0.618489583333333 17.8515625  0.37109375 17.5546875  C 0.123697916666667 17.2578125  0 16.90625  0 16.5  L 0 13.5  C 0 13.09375  0.123697916666667 12.7421875  0.37109375 12.4453125  C 0.618489583333333 12.1484375  0.911458333333333 12  1.25 12  L 28.75 12  C 29.0885416666667 12  29.3815104166667 12.1484375  29.62890625 12.4453125  Z M 29.62890625 0.445312500000001  C 29.8763020833333 0.742187499999998  30 1.09375  30 1.5  L 30 4.5  C 30 4.90625  29.8763020833333 5.2578125  29.62890625 5.5546875  C 29.3815104166667 5.8515625  29.0885416666667 6  28.75 6  L 1.25 6  C 0.911458333333333 6  0.618489583333333 5.8515625  0.37109375 5.5546875  C 0.123697916666667 5.2578125  0 4.90625  0 4.5  L 0 1.5  C 0 1.09375  0.123697916666667 0.742187499999998  0.37109375 0.445312500000001  C 0.618489583333333 0.148437499999998  0.911458333333333 0  1.25 0  L 28.75 0  C 29.0885416666667 0  29.3815104166667 0.148437499999998  29.62890625 0.445312500000001  Z " fill-rule="nonzero" fill="#676060" stroke="none" transform="matrix(1 0 0 1 287 29 )" />
  </g>
</svg>